CommeMono-Regular.ufo
<glyph name="quotedbl" format="1">
  <advance width="1229"/>
  <unicode hex="0022"/>
  <outline>
    <contour>
      <point x="936" y="1584" type="line"/>
      <point x="885" y="870" type="line"/>
      <point x="765" y="870" type="line"/>
      <point x="718" y="1584" type="line"/>
    </contour>
    <contour>
      <point x="516" y="1584" type="line"/>
      <point x="465" y="870" type="line"/>
      <point x="343" y="870" type="line"/>
      <point x="293" y="1584" type="line"/>
    </contour>
  </outline>
</glyph>
<glyph name="ampersand" format="1">
  <advance width="1229"/>
  <unicode hex="0026"/>
  <outline>
    <contour>
      <point x="689" y="1260" type="curve" smooth="yes"/>
      <point x="689" y="1369"/>
      <point x="622" y="1444"/>
      <point x="530" y="1444" type="curve" smooth="yes"/>
      <point x="428" y="1444"/>
      <point x="349" y="1379"/>
      <point x="349" y="1289" type="curve" smooth="yes"/>
      <point x="349" y="1203"/>
      <point x="400" y="1089"/>
      <point x="494" y="961" type="curve"/>
      <point x="603" y="1022"/>
      <point x="689" y="1102"/>
    </contour>
    <contour>
      <point x="554" y="143" type="curve" smooth="yes"/>
      <point x="666" y="143"/>
      <point x="739" y="194"/>
      <point x="804" y="259" type="curve"/>
      <point x="449" y="746" type="line"/>
      <point x="358" y="677"/>
      <point x="277" y="571"/>
      <point x="277" y="419" type="curve" smooth="yes"/>
      <point x="277" y="243"/>
      <point x="381" y="143"/>
    </contour>
    <contour>
      <point x="346" y="881" type="curve"/>
      <point x="346" y="881"/>
      <point x="152" y="1099"/>
      <point x="152" y="1275" type="curve" smooth="yes"/>
      <point x="152" y="1488"/>
      <point x="318" y="1594"/>
      <point x="515" y="1594" type="curve" smooth="yes"/>
      <point x="719" y="1594"/>
      <point x="891" y="1486"/>
      <point x="891" y="1270" type="curve" smooth="yes"/>
      <point x="891" y="1048"/>
      <point x="725" y="922"/>
      <point x="574" y="838" type="curve"/>
      <point x="913" y="374" type="line"/>
      <point x="966" y="437"/>
      <point x="1024" y="583"/>
      <point x="1039" y="627" type="curve"/>
      <point x="1198" y="569" type="line"/>
      <point x="1164" y="489"/>
      <point x="1077" y="301"/>
      <point x="1015" y="236" type="curve"/>
      <point x="1138" y="76" type="line"/>
      <point x="1008" y="-24" type="line"/>
      <point x="905" y="121" type="line"/>
      <point x="819" y="39"/>
      <point x="680" y="-25"/>
      <point x="531" y="-25" type="curve" smooth="yes"/>
      <point x="251" y="-25"/>
      <point x="68" y="129"/>
      <point x="68" y="413" type="curve" smooth="yes"/>
      <point x="68" y="641"/>
      <point x="200" y="784"/>
    </contour>
  </outline>
</glyph>
<glyph name="parenleft" format="1">
  <advance width="1229"/>
  <unicode hex="0028"/>
  <outline>
    <contour>
      <point x="383" y="772" type="curve" smooth="yes"/>
      <point x="383" y="1157"/>
      <point x="509" y="1462"/>
      <point x="685" y="1705" type="curve"/>
      <point x="861" y="1705" type="line"/>
      <point x="671" y="1405"/>
      <point x="577" y="1097"/>
      <point x="577" y="781" type="curve" smooth="yes"/>
      <point x="577" y="400"/>
      <point x="699" y="110"/>
      <point x="863" y="-152" type="curve"/>
      <point x="688" y="-152" type="line"/>
      <point x="508" y="88"/>
      <point x="383" y="388"/>
    </contour>
  </outline>
</glyph>
<glyph name="parenright" format="1">
  <advance width="1229"/>
  <unicode hex="0029"/>
  <outline>
    <contour>
      <point x="815" y="772" type="curve" smooth="yes"/>
      <point x="815" y="388"/>
      <point x="690" y="88"/>
      <point x="510" y="-152" type="curve"/>
      <point x="334" y="-152" type="line"/>
      <point x="498" y="110"/>
      <point x="620" y="400"/>
      <point x="620" y="781" type="curve" smooth="yes"/>
      <point x="620" y="1097"/>
      <point x="526" y="1405"/>
      <point x="336" y="1705" type="curve"/>
      <point x="513" y="1705" type="line"/>
      <point x="689" y="1462"/>
      <point x="815" y="1157"/>
    </contour>
  </outline>
</glyph>
<glyph name="comma" format="1">
  <advance width="1229"/>
  <unicode hex="002C"/>
  <outline>
    <contour>
      <point x="623" y="392" type="move" name="_bottom"/>
    </contour>
    <contour>
      <point x="440" y="-321" type="line"/>
      <point x="491" y="186" type="line"/>
      <point x="748" y="186" type="line"/>
      <point x="562" y="-321" type="line"/>
    </contour>
  </outline>
</glyph>
<glyph name="hyphen" format="1">
  <advance width="1229"/>
  <unicode hex="002D"/>
  <outline>
    <contour>
      <point x="983" y="706" type="line"/>
      <point x="983" y="551" type="line"/>
      <point x="247" y="551" type="line"/>
      <point x="247" y="706" type="line"/>
    </contour>
  </outline>
</glyph>
<glyph name="period" format="1">
  <advance width="1229"/>
  <unicode hex="002E"/>
  <outline>
    <contour>
      <point x="764" y="0" type="line"/>
      <point x="463" y="0" type="line"/>
      <point x="463" y="301" type="line"/>
      <point x="764" y="301" type="line"/>
    </contour>
  </outline>
</glyph>
<glyph name="slash" format="1">
  <advance width="1229"/>
  <unicode hex="002F"/>
  <outline>
    <contour>
      <point x="887" y="1585" type="line"/>
      <point x="1084" y="1585" type="line"/>
      <point x="375" y="-224" type="line"/>
      <point x="184" y="-224" type="line"/>
    </contour>
  </outline>
</glyph>
<glyph name="zero" format="1">
  <advance width="1229"/>
  <unicode hex="0030"/>
  <outline>
    <contour>
      <point x="841" y="1170" type="curve"/>
      <point x="487" y="176" type="line"/>
      <point x="523" y="146"/>
      <point x="566" y="130"/>
      <point x="614" y="130" type="curve" smooth="yes"/>
      <point x="810" y="130"/>
      <point x="909" y="401"/>
      <point x="909" y="746" type="curve" smooth="yes"/>
      <point x="909" y="911"/>
      <point x="886" y="1060"/>
    </contour>
    <contour>
      <point x="614" y="-25" type="curve" smooth="yes"/>
      <point x="275" y="-25"/>
      <point x="123" y="337"/>
      <point x="123" y="747" type="curve" smooth="yes"/>
      <point x="123" y="1124"/>
      <point x="242" y="1516"/>
      <point x="614" y="1516" type="curve" smooth="yes"/>
      <point x="986" y="1516"/>
      <point x="1105" y="1124"/>
      <point x="1105" y="747" type="curve" smooth="yes"/>
      <point x="1105" y="337"/>
      <point x="953" y="-25"/>
    </contour>
    <contour>
      <point x="614" y="1363" type="curve" smooth="yes"/>
      <point x="417" y="1363"/>
      <point x="319" y="1091"/>
      <point x="319" y="746" type="curve" smooth="yes"/>
      <point x="319" y="576"/>
      <point x="343" y="424"/>
      <point x="391" y="313" type="curve"/>
      <point x="749" y="1310" type="line"/>
      <point x="711" y="1344"/>
      <point x="666" y="1363"/>
    </contour>
  </outline>
</glyph>
<glyph name="one" format="1">
  <advance width="1229"/>
  <unicode hex="0031"/>
  <outline>
    <contour>
      <point x="1075" y="0" type="line"/>
      <point x="238" y="0" type="line"/>
      <point x="238" y="146" type="line"/>
      <point x="574" y="146" type="line"/>
      <point x="574" y="1290" type="line"/>
      <point x="471" y="1232"/>
      <point x="352" y="1150"/>
      <point x="237" y="1106" type="curve"/>
      <point x="237" y="1287" type="line"/>
      <point x="368" y="1341"/>
      <point x="464" y="1415"/>
      <point x="573" y="1492" type="curve"/>
      <point x="761" y="1492" type="line"/>
      <point x="761" y="146" type="line"/>
      <point x="1075" y="146" type="line"/>
    </contour>
  </outline>
</glyph>
<glyph name="two" format="1">
  <advance width="1229"/>
  <unicode hex="0032"/>
  <outline>
    <contour>
      <point x="193" y="1395" type="line"/>
      <point x="290" y="1474"/>
      <point x="391" y="1516"/>
      <point x="554" y="1516" type="curve" smooth="yes"/>
      <point x="839" y="1516"/>
      <point x="993" y="1341"/>
      <point x="993" y="1088" type="curve" smooth="yes"/>
      <point x="993" y="857"/>
      <point x="844" y="682"/>
      <point x="738" y="552" type="curve" smooth="yes"/>
      <point x="402" y="146" type="line"/>
      <point x="996" y="146" type="line"/>
      <point x="996" y="0" type="line"/>
      <point x="203" y="0" type="line"/>
      <point x="203" y="191" type="line"/>
      <point x="629" y="723" type="line" smooth="yes"/>
      <point x="706" y="819"/>
      <point x="795" y="941"/>
      <point x="795" y="1083" type="curve" smooth="yes"/>
      <point x="795" y="1247"/>
      <point x="712" y="1341"/>
      <point x="556" y="1341" type="curve" smooth="yes"/>
      <point x="414" y="1341"/>
      <point x="339" y="1297"/>
      <point x="259" y="1239" type="curve"/>
    </contour>
  </outline>
</glyph>
<glyph name="five" format="1">
  <advance width="1229"/>
  <unicode hex="0035"/>
  <outline>
    <contour>
      <point x="242" y="275" type="line"/>
      <point x="371" y="171"/>
      <point x="491" y="130"/>
      <point x="615" y="130" type="curve" smooth="yes"/>
      <point x="809" y="130"/>
      <point x="909" y="316"/>
      <point x="909" y="494" type="curve" smooth="yes"/>
      <point x="909" y="655"/>
      <point x="826" y="809"/>
      <point x="654" y="809" type="curve" smooth="yes"/>
      <point x="533" y="809"/>
      <point x="474" y="699"/>
      <point x="474" y="699" type="curve"/>
      <point x="264" y="699" type="line"/>
      <point x="264" y="1492" type="line"/>
      <point x="987" y="1492" type="line"/>
      <point x="987" y="1346" type="line"/>
      <point x="452" y="1346" type="line"/>
      <point x="452" y="880" type="line"/>
      <point x="452" y="880"/>
      <point x="552" y="976"/>
      <point x="674" y="976" type="curve" smooth="yes"/>
      <point x="965" y="976"/>
      <point x="1110" y="739"/>
      <point x="1110" y="495" type="curve" smooth="yes"/>
      <point x="1110" y="239"/>
      <point x="950" y="-23"/>
      <point x="633" y="-23" type="curve" smooth="yes"/>
      <point x="423" y="-23"/>
      <point x="290" y="30"/>
      <point x="168" y="121" type="curve"/>
    </contour>
  </outline>
</glyph>
<glyph name="six" format="1">
  <advance width="1229"/>
  <unicode hex="0036"/>
  <outline>
    <contour>
      <point x="638.059" y="128.994" type="curve" smooth="yes"/>
      <point x="809.501" y="128.994"/>
      <point x="922" y="267.505"/>
      <point x="922" y="445" type="curve" smooth="yes"/>
      <point x="922" y="618"/>
      <point x="823" y="765"/>
      <point x="650" y="765" type="curve" smooth="yes"/>
      <point x="452" y="765"/>
      <point x="352" y="615"/>
      <point x="352" y="437" type="curve" smooth="yes"/>
      <point x="352" y="263.641"/>
      <point x="463.177" y="128.994"/>
    </contour>
    <contour>
      <point x="640" y="-26" type="curve" smooth="yes"/>
      <point x="333" y="-26"/>
      <point x="154" y="167"/>
      <point x="154" y="472" type="curve" smooth="yes"/>
      <point x="154" y="663"/>
      <point x="224.939" y="824.441"/>
      <point x="318" y="938" type="curve" smooth="yes"/>
      <point x="772" y="1492" type="line"/>
      <point x="1014" y="1492" type="line"/>
      <point x="474" y="852" type="line"/>
      <point x="525" y="884"/>
      <point x="611" y="911"/>
      <point x="690" y="911" type="curve" smooth="yes"/>
      <point x="952" y="911"/>
      <point x="1114" y="711"/>
      <point x="1114" y="449" type="curve" smooth="yes"/>
      <point x="1114" y="149"/>
      <point x="885" y="-26"/>
    </contour>
  </outline>
</glyph>
<glyph name="colon" format="1">
  <advance width="1229"/>
  <unicode hex="003A"/>
  <outline>
    <contour>
      <point x="768" y="156" type="line"/>
      <point x="492" y="156" type="line"/>
      <point x="492" y="435" type="line"/>
      <point x="768" y="435" type="line"/>
    </contour>
    <contour>
      <point x="768" y="840" type="line"/>
      <point x="492" y="840" type="line"/>
      <point x="492" y="1120" type="line"/>
      <point x="768" y="1120" type="line"/>
    </contour>
  </outline>
</glyph>
<glyph name="semicolon" format="1">
  <advance width="1229"/>
  <unicode hex="003B"/>
  <outline>
    <contour>
      <point x="778" y="838" type="line"/>
      <point x="479" y="838" type="line"/>
      <point x="479" y="1139" type="line"/>
      <point x="778" y="1139" type="line"/>
    </contour>
    <contour>
      <point x="410" y="-313" type="line"/>
      <point x="486" y="286" type="line"/>
      <point x="758" y="286" type="line"/>
      <point x="590" y="-313" type="line"/>
    </contour>
  </outline>
</glyph>
<glyph name="equal" format="1">
  <advance width="1229"/>
  <unicode hex="003D"/>
  <outline>
    <contour>
      <point x="1095" y="457" type="line"/>
      <point x="136" y="457" type="line"/>
      <point x="136" y="605" type="line"/>
      <point x="1095" y="605" type="line"/>
    </contour>
    <contour>
      <point x="1094" y="898" type="line"/>
      <point x="135" y="898" type="line"/>
      <point x="135" y="1048" type="line"/>
      <point x="1094" y="1048" type="line"/>
    </contour>
  </outline>
</glyph>
<glyph name="question" format="1">
  <advance width="1229"/>
  <unicode hex="003F"/>
  <outline>
    <contour>
      <point x="328" y="-12" type="line"/>
      <point x="328" y="216" type="line"/>
      <point x="570" y="216" type="line"/>
      <point x="570" y="-12" type="line"/>
    </contour>
    <contour>
      <point x="959" y="1231" type="curve" smooth="yes"/>
      <point x="959" y="924.77"/>
      <point x="523" y="805.837"/>
      <point x="523" y="556" type="curve" smooth="yes"/>
      <point x="523" y="501"/>
      <point x="533" y="447"/>
      <point x="542" y="400" type="curve"/>
      <point x="360" y="400" type="line"/>
      <point x="353" y="455"/>
      <point x="349" y="512"/>
      <point x="349" y="569" type="curve"/>
      <point x="348" y="570" type="line"/>
      <point x="348" y="789"/>
      <point x="552" y="880"/>
      <point x="663" y="993" type="curve" smooth="yes"/>
      <point x="719" y="1050"/>
      <point x="773" y="1117"/>
      <point x="773" y="1222" type="curve" smooth="yes"/>
      <point x="773" y="1392"/>
      <point x="616" y="1451"/>
      <point x="447" y="1451" type="curve" smooth="yes"/>
      <point x="337" y="1451"/>
      <point x="244" y="1418"/>
      <point x="168" y="1377" type="curve"/>
      <point x="168" y="1535" type="line"/>
      <point x="246" y="1572"/>
      <point x="338" y="1606"/>
      <point x="447" y="1606" type="curve" smooth="yes"/>
      <point x="725" y="1606"/>
      <point x="959" y="1509"/>
    </contour>
  </outline>
</glyph>
<glyph name="A" format="1">
  <advance width="1229"/>
  <unicode hex="0041"/>
  <outline>
    <contour>
      <point x="1106" y="10" type="move" name="ogonek"/>
    </contour>
    <contour>
      <point x="615" y="1491" type="move" name="top"/>
    </contour>
    <contour>
      <point x="451" y="624" type="line"/>
      <point x="777" y="624" type="line"/>
      <point x="617" y="1302" type="line"/>
    </contour>
    <contour>
      <point x="720" y="1491" type="line"/>
      <point x="1147" y="0" type="line"/>
      <point x="956" y="0" type="line"/>
      <point x="815" y="493" type="line"/>
      <point x="412" y="493" type="line"/>
      <point x="272" y="0" type="line"/>
      <point x="82" y="0" type="line"/>
      <point x="508" y="1491" type="line"/>
    </contour>
  </outline>
</glyph>
<glyph name="B" format="1">
  <advance width="1229"/>
  <unicode hex="0042"/>
  <outline>
    <contour>
      <point x="492" y="889" type="line" smooth="yes"/>
      <point x="679" y="889"/>
      <point x="840" y="930"/>
      <point x="840" y="1103" type="curve" smooth="yes"/>
      <point x="840" y="1337"/>
      <point x="733" y="1357"/>
      <point x="433" y="1358" type="curve"/>
      <point x="345" y="1358" type="line"/>
      <point x="345" y="889" type="line"/>
    </contour>
    <contour>
      <point x="537" y="737" type="curve" smooth="yes"/>
      <point x="345" y="737" type="line"/>
      <point x="345" y="159" type="line"/>
      <point x="518" y="159" type="line" smooth="yes"/>
      <point x="790" y="159"/>
      <point x="916" y="221"/>
      <point x="916" y="455" type="curve" smooth="yes"/>
      <point x="916" y="674"/>
      <point x="767" y="737"/>
    </contour>
    <contour>
      <point x="1113" y="446" type="curve" smooth="yes"/>
      <point x="1113" y="118"/>
      <point x="858" y="13"/>
      <point x="517" y="13" type="curve" smooth="yes"/>
      <point x="158" y="13" type="line"/>
      <point x="158" y="1504" type="line"/>
      <point x="464" y="1504" type="line" smooth="yes"/>
      <point x="775" y="1504"/>
      <point x="1036" y="1449"/>
      <point x="1036" y="1138" type="curve" smooth="yes"/>
      <point x="1036" y="957"/>
      <point x="920" y="864"/>
      <point x="769" y="823" type="curve"/>
      <point x="962" y="795"/>
      <point x="1113" y="648"/>
    </contour>
  </outline>
</glyph>
<glyph name="C" format="1">
  <advance width="1229"/>
  <unicode hex="0043"/>
  <outline>
    <contour>
      <point x="704" y="1" type="move" name="bottom"/>
    </contour>
    <contour>
      <point x="719" y="1491" type="move" name="top"/>
    </contour>
    <contour>
      <point x="1092" y="1371" type="curve"/>
      <point x="992" y="1260" type="line"/>
      <point x="923" y="1319"/>
      <point x="847" y="1363"/>
      <point x="728" y="1363" type="curve" smooth="yes"/>
      <point x="463" y="1363"/>
      <point x="323" y="1074"/>
      <point x="323" y="748" type="curve" smooth="yes"/>
      <point x="323" y="406"/>
      <point x="467" y="130"/>
      <point x="718" y="130" type="curve" smooth="yes"/>
      <point x="838" y="130"/>
      <point x="923" y="175"/>
      <point x="993" y="238" type="curve"/>
      <point x="1092" y="121" type="line"/>
      <point x="1000" y="32"/>
      <point x="874" y="-25"/>
      <point x="704" y="-25" type="curve" smooth="yes"/>
      <point x="366" y="-25"/>
      <point x="127" y="303"/>
      <point x="127" y="750" type="curve" smooth="yes"/>
      <point x="127" y="1217"/>
      <point x="380" y="1516"/>
      <point x="720" y="1516" type="curve" smooth="yes"/>
      <point x="870" y="1516"/>
      <point x="990" y="1477"/>
    </contour>
  </outline>
</glyph>
<glyph name="D" format="1">
  <advance width="1229"/>
  <unicode hex="0044"/>
  <outline>
    <contour>
      <point x="630" y="746" type="move" name="center"/>
    </contour>
    <contour>
      <point x="630" y="1491" type="move" name="top"/>
    </contour>
    <contour>
      <point x="375" y="146" type="line" smooth="yes"/>
      <point x="797" y="146"/>
      <point x="911" y="346"/>
      <point x="911" y="725" type="curve" smooth="yes"/>
      <point x="911" y="1103"/>
      <point x="806" y="1345"/>
      <point x="377" y="1345" type="curve" smooth="yes"/>
      <point x="358" y="1345" type="line"/>
      <point x="358" y="146" type="line"/>
    </contour>
    <contour>
      <point x="171" y="1491" type="line"/>
      <point x="392" y="1491" type="line" smooth="yes"/>
      <point x="873" y="1491"/>
      <point x="1107" y="1196"/>
      <point x="1107" y="724" type="curve" smooth="yes"/>
      <point x="1107" y="245"/>
      <point x="879" y="0"/>
      <point x="379" y="0" type="curve" smooth="yes"/>
      <point x="171" y="0" type="line"/>
    </contour>
  </outline>
</glyph>
<glyph name="E" format="1">
  <advance width="1229"/>
  <unicode hex="0045"/>
  <outline>
    <contour>
      <point x="979" y="1" type="move" name="ogonek"/>
    </contour>
    <contour>
      <point x="623" y="0" type="move" name="bottom"/>
    </contour>
    <contour>
      <point x="623" y="1491" type="move" name="top"/>
    </contour>
    <contour>
      <point x="412" y="684" type="line"/>
      <point x="412" y="146" type="line"/>
      <point x="1089" y="146" type="line"/>
      <point x="1074" y="0" type="line"/>
      <point x="225" y="0" type="line"/>
      <point x="225" y="1491" type="line"/>
      <point x="1056" y="1491" type="line"/>
      <point x="1040" y="1345" type="line"/>
      <point x="412" y="1345" type="line"/>
      <point x="412" y="843" type="line"/>
      <point x="1007" y="843" type="line"/>
      <point x="1007" y="684" type="line"/>
    </contour>
  </outline>
</glyph>
<glyph name="F" format="1">
  <advance width="1229"/>
  <unicode hex="0046"/>
  <outline>
    <contour>
      <point x="431" y="683" type="line"/>
      <point x="431" y="0" type="line"/>
      <point x="244" y="0" type="line"/>
      <point x="244" y="1491" type="line"/>
      <point x="1078" y="1491" type="line"/>
      <point x="1060" y="1345" type="line"/>
      <point x="431" y="1345" type="line"/>
      <point x="431" y="846" type="line"/>
      <point x="1034" y="846" type="line"/>
      <point x="1034" y="683" type="line"/>
    </contour>
  </outline>
</glyph>
<glyph name="G" format="1">
  <advance width="1229"/>
  <unicode hex="0047"/>
  <outline>
    <contour>
      <point x="610" y="0" type="move" name="bottom"/>
    </contour>
    <contour>
      <point x="610" y="1491" type="move" name="top"/>
    </contour>
    <contour>
      <point x="989" y="1255" type="curve"/>
      <point x="915" y="1325"/>
      <point x="841" y="1363"/>
      <point x="716" y="1363" type="curve" smooth="yes"/>
      <point x="445" y="1362"/>
      <point x="298" y="1061"/>
      <point x="298" y="748" type="curve" smooth="yes"/>
      <point x="298" y="422"/>
      <point x="410" y="130"/>
      <point x="687" y="130" type="curve" smooth="yes"/>
      <point x="805" y="130"/>
      <point x="854" y="155"/>
      <point x="929" y="200" type="curve"/>
      <point x="929" y="625" type="line"/>
      <point x="639" y="625" type="line"/>
      <point x="639" y="778" type="line"/>
      <point x="1102" y="778" type="line"/>
      <point x="1102" y="120" type="line"/>
      <point x="977" y="40"/>
      <point x="869" y="-25"/>
      <point x="669" y="-25" type="curve" smooth="yes"/>
      <point x="278" y="-25"/>
      <point x="102" y="328"/>
      <point x="102" y="750" type="curve" smooth="yes"/>
      <point x="102" y="1213"/>
      <point x="370" y="1515"/>
      <point x="703" y="1515" type="curve" smooth="yes"/>
      <point x="865" y="1515"/>
      <point x="958" y="1473"/>
      <point x="1053" y="1388" type="curve"/>
      <point x="1036" y="1348"/>
      <point x="989" y="1255"/>
    </contour>
  </outline>
</glyph>
<glyph name="H" format="1">
  <advance width="1229"/>
  <unicode hex="0048"/>
  <outline>
    <contour>
      <point x="615" y="746" type="move" name="center"/>
    </contour>
    <contour>
      <point x="615" y="1491" type="move" name="top"/>
    </contour>
    <contour>
      <point x="327" y="0" type="line"/>
      <point x="140" y="0" type="line"/>
      <point x="140" y="1491" type="line"/>
      <point x="327" y="1491" type="line"/>
      <point x="327" y="855" type="line"/>
      <point x="902" y="855" type="line"/>
      <point x="902" y="1491" type="line"/>
      <point x="1089" y="1491" type="line"/>
      <point x="1089" y="0" type="line"/>
      <point x="902" y="0" type="line"/>
      <point x="902" y="702" type="line"/>
      <point x="327" y="702" type="line"/>
    </contour>
  </outline>
</glyph>
<glyph name="I" format="1">
  <advance width="1229"/>
  <unicode hex="0049"/>
  <outline>
    <contour>
      <point x="668" y="0" type="move" name="ogonek"/>
    </contour>
    <contour>
      <point x="615" y="1491" type="move" name="top"/>
    </contour>
    <contour>
      <point x="194" y="1345" type="line"/>
      <point x="194" y="1491" type="line"/>
      <point x="1035" y="1491" type="line"/>
      <point x="1035" y="1345" type="line"/>
      <point x="704" y="1345" type="line"/>
      <point x="704" y="146" type="line"/>
      <point x="1035" y="146" type="line"/>
      <point x="1035" y="0" type="line"/>
      <point x="194" y="0" type="line"/>
      <point x="194" y="146" type="line"/>
      <point x="517" y="146" type="line"/>
      <point x="517" y="1345" type="line"/>
    </contour>
  </outline>
</glyph>
<glyph name="J" format="1">
  <advance width="1229"/>
  <unicode hex="004A"/>
  <outline>
    <contour>
      <point x="626" y="1491" type="move" name="top"/>
    </contour>
    <contour>
      <point x="181" y="0" type="curve"/>
      <point x="180" y="151" type="line"/>
      <point x="270" y="143"/>
      <point x="371" y="126"/>
      <point x="463" y="126" type="curve" smooth="yes"/>
      <point x="619" y="126"/>
      <point x="748" y="174"/>
      <point x="748" y="391" type="curve" smooth="yes"/>
      <point x="748" y="1345" type="line"/>
      <point x="320" y="1345" type="line"/>
      <point x="320" y="1491" type="line"/>
      <point x="935" y="1491" type="line"/>
      <point x="935" y="443" type="line" smooth="yes"/>
      <point x="935" y="63"/>
      <point x="748" y="-16"/>
      <point x="466" y="-16" type="curve" smooth="yes"/>
      <point x="379" y="-16"/>
      <point x="283" y="-8"/>
    </contour>
  </outline>
</glyph>
<glyph name="K" format="1">
  <advance width="1229"/>
  <unicode hex="004B"/>
  <outline>
    <contour>
      <point x="615" y="0" type="move" name="bottom"/>
    </contour>
    <contour>
      <point x="615" y="1491" type="move" name="top"/>
    </contour>
    <contour>
      <point x="927" y="1491" type="line"/>
      <point x="1160" y="1491" type="line"/>
      <point x="661" y="823" type="line"/>
      <point x="1193" y="0" type="line"/>
      <point x="955" y="0" type="line"/>
      <point x="517" y="700" type="line"/>
      <point x="398" y="561" type="line"/>
      <point x="398" y="0" type="line"/>
      <point x="211" y="0" type="line"/>
      <point x="211" y="1491" type="line"/>
      <point x="398" y="1491" type="line"/>
      <point x="398" y="773" type="line"/>
    </contour>
  </outline>
</glyph>
<glyph name="L" format="1">
  <advance width="1229"/>
  <unicode hex="004C"/>
  <outline>
    <contour>
      <point x="615" y="0" type="move" name="bottom"/>
    </contour>
    <contour>
      <point x="615" y="1491" type="move" name="top"/>
    </contour>
    <contour>
      <point x="490" y="146" type="line"/>
      <point x="1066" y="146" type="line"/>
      <point x="1056" y="0" type="line"/>
      <point x="303" y="0" type="line"/>
      <point x="303" y="1491" type="line"/>
      <point x="490" y="1491" type="line"/>
    </contour>
  </outline>
</glyph>
<glyph name="M" format="1">
  <advance width="1229"/>
  <unicode hex="004D"/>
  <outline>
    <contour>
      <point x="336" y="1280" type="line"/>
      <point x="336" y="0" type="line"/>
      <point x="150" y="0" type="line"/>
      <point x="150" y="1491" type="line"/>
      <point x="405" y="1491" type="line"/>
      <point x="618" y="792" type="line"/>
      <point x="831" y="1491" type="line"/>
      <point x="1080" y="1491" type="line"/>
      <point x="1080" y="0" type="line"/>
      <point x="899" y="0" type="line"/>
      <point x="899" y="1280" type="line"/>
      <point x="722" y="636" type="line"/>
      <point x="513" y="636" type="line"/>
    </contour>
  </outline>
</glyph>
<glyph name="N" format="1">
  <advance width="1229"/>
  <unicode hex="004E"/>
  <outline>
    <contour>
      <point x="615" y="0" type="move" name="bottom"/>
    </contour>
    <contour>
      <point x="615" y="1491" type="move" name="top"/>
    </contour>
    <contour>
      <point x="1078" y="0" type="line"/>
      <point x="858" y="0" type="line"/>
      <point x="320" y="1206" type="line"/>
      <point x="320" y="0" type="line"/>
      <point x="150" y="0" type="line"/>
      <point x="150" y="1491" type="line"/>
      <point x="365" y="1491" type="line"/>
      <point x="911" y="289" type="line"/>
      <point x="911" y="1491" type="line"/>
      <point x="1078" y="1491" type="line"/>
    </contour>
  </outline>
</glyph>
<glyph name="O" format="1">
  <advance width="1229"/>
  <unicode hex="004F"/>
  <outline>
    <contour>
      <point x="615" y="1491" type="move" name="top"/>
    </contour>
    <contour>
      <point x="614" y="1363" type="curve" smooth="yes"/>
      <point x="417" y="1363"/>
      <point x="319" y="1091"/>
      <point x="319" y="746" type="curve" smooth="yes"/>
      <point x="319" y="401"/>
      <point x="418" y="130"/>
      <point x="614" y="130" type="curve" smooth="yes"/>
      <point x="810" y="130"/>
      <point x="909" y="401"/>
      <point x="909" y="746" type="curve" smooth="yes"/>
      <point x="909" y="1091"/>
      <point x="811" y="1363"/>
    </contour>
    <contour>
      <point x="614" y="-25" type="curve" smooth="yes"/>
      <point x="275" y="-25"/>
      <point x="123" y="337"/>
      <point x="123" y="747" type="curve" smooth="yes"/>
      <point x="123" y="1124"/>
      <point x="242" y="1516"/>
      <point x="614" y="1516" type="curve" smooth="yes"/>
      <point x="986" y="1516"/>
      <point x="1105" y="1124"/>
      <point x="1105" y="747" type="curve" smooth="yes"/>
      <point x="1105" y="337"/>
      <point x="953" y="-25"/>
    </contour>
  </outline>
</glyph>
<glyph name="P" format="1">
  <advance width="1229"/>
  <unicode hex="0050"/>
  <outline>
    <contour>
      <point x="397" y="765" type="line"/>
      <point x="616" y="765" type="line" smooth="yes"/>
      <point x="799" y="765"/>
      <point x="929" y="861"/>
      <point x="929" y="1053" type="curve" smooth="yes"/>
      <point x="929" y="1259"/>
      <point x="797" y="1345"/>
      <point x="616" y="1345" type="curve" smooth="yes"/>
      <point x="397" y="1345" type="line"/>
    </contour>
    <contour>
      <point x="1110" y="1062" type="curve" smooth="yes"/>
      <point x="1110" y="703"/>
      <point x="867" y="616"/>
      <point x="551" y="616" type="curve" smooth="yes"/>
      <point x="397" y="616" type="line"/>
      <point x="397" y="0" type="line"/>
      <point x="210" y="0" type="line"/>
      <point x="210" y="1491" type="line"/>
      <point x="552" y="1491" type="line" smooth="yes"/>
      <point x="861" y="1491"/>
      <point x="1110" y="1386"/>
    </contour>
  </outline>
</glyph>
<glyph name="R" format="1">
  <advance width="1229"/>
  <unicode hex="0052"/>
  <outline>
    <contour>
      <point x="615" y="0" type="move" name="bottom"/>
    </contour>
    <contour>
      <point x="615" y="1491" type="move" name="top"/>
    </contour>
    <contour>
      <point x="567" y="824" type="curve" smooth="yes"/>
      <point x="373" y="824" type="line"/>
      <point x="373" y="1345" type="line"/>
      <point x="563" y="1345" type="line" smooth="yes"/>
      <point x="770" y="1345"/>
      <point x="928" y="1286"/>
      <point x="928" y="1098" type="curve" smooth="yes"/>
      <point x="928" y="888"/>
      <point x="778" y="824"/>
    </contour>
    <contour>
      <point x="1115" y="1093" type="curve" smooth="yes"/>
      <point x="1115" y="1439"/>
      <point x="833" y="1491"/>
      <point x="488" y="1491" type="curve" smooth="yes"/>
      <point x="186" y="1491" type="line"/>
      <point x="186" y="0" type="line"/>
      <point x="373" y="0" type="line"/>
      <point x="373" y="662" type="line"/>
      <point x="460" y="662" type="line" smooth="yes"/>
      <point x="514" y="662"/>
      <point x="655" y="665"/>
      <point x="655" y="665" type="curve"/>
      <point x="972" y="0" type="line"/>
      <point x="1177" y="0" type="line"/>
      <point x="838" y="712" type="line"/>
      <point x="996" y="767"/>
      <point x="1115" y="873"/>
    </contour>
  </outline>
</glyph>
<glyph name="S" format="1">
  <advance width="1229"/>
  <unicode hex="0053"/>
  <outline>
    <contour>
      <point x="634" y="0" type="move" name="bottom"/>
    </contour>
    <contour>
      <point x="634" y="1491" type="move" name="top"/>
    </contour>
    <contour>
      <point x="250" y="249" type="line"/>
      <point x="332" y="195"/>
      <point x="443" y="130"/>
      <point x="599" y="130" type="curve" smooth="yes"/>
      <point x="761" y="130"/>
      <point x="862" y="233"/>
      <point x="862" y="399" type="curve" smooth="yes"/>
      <point x="862" y="600"/>
      <point x="694" y="638"/>
      <point x="515" y="718" type="curve" smooth="yes"/>
      <point x="343" y="795"/>
      <point x="169" y="879"/>
      <point x="169" y="1123" type="curve" smooth="yes"/>
      <point x="169" y="1380"/>
      <point x="373" y="1517"/>
      <point x="630" y="1517" type="curve" smooth="yes"/>
      <point x="797" y="1517"/>
      <point x="927" y="1471"/>
      <point x="1022" y="1396" type="curve"/>
      <point x="932" y="1274" type="line"/>
      <point x="865" y="1326"/>
      <point x="747" y="1369"/>
      <point x="633" y="1363" type="curve" smooth="yes"/>
      <point x="476" y="1355"/>
      <point x="376" y="1279"/>
      <point x="376" y="1128" type="curve" smooth="yes"/>
      <point x="376" y="961"/>
      <point x="544" y="921"/>
      <point x="725" y="833" type="curve" smooth="yes"/>
      <point x="894" y="751"/>
      <point x="1073" y="658"/>
      <point x="1073" y="415" type="curve" smooth="yes"/>
      <point x="1073" y="122"/>
      <point x="889" y="-25"/>
      <point x="608" y="-25" type="curve" smooth="yes"/>
      <point x="427" y="-25"/>
      <point x="269" y="35"/>
      <point x="152" y="113" type="curve"/>
    </contour>
  </outline>
</glyph>
<glyph name="T" format="1">
  <advance width="1229"/>
  <unicode hex="0054"/>
  <outline>
    <contour>
      <point x="615" y="746" type="move" name="center"/>
    </contour>
    <contour>
      <point x="615" y="0" type="move" name="bottom"/>
    </contour>
    <contour>
      <point x="615" y="1491" type="move" name="top"/>
    </contour>
    <contour>
      <point x="1129" y="1491" type="line"/>
      <point x="1129" y="1345" type="line"/>
      <point x="705" y="1345" type="line"/>
      <point x="705" y="0" type="line"/>
      <point x="518" y="0" type="line"/>
      <point x="518" y="1345" type="line"/>
      <point x="94" y="1345" type="line"/>
      <point x="94" y="1491" type="line"/>
    </contour>
  </outline>
</glyph>
<glyph name="U" format="1">
  <advance width="1229"/>
  <unicode hex="0055"/>
  <outline>
    <contour>
      <point x="651" y="2" type="move" name="ogonek"/>
    </contour>
    <contour>
      <point x="635" y="1491" type="move" name="top"/>
    </contour>
    <contour>
      <point x="614" y="-25" type="curve" smooth="yes"/>
      <point x="271" y="-25"/>
      <point x="129" y="129"/>
      <point x="129" y="484" type="curve" smooth="yes"/>
      <point x="129" y="1491" type="line"/>
      <point x="316" y="1491" type="line"/>
      <point x="316" y="490" type="line" smooth="yes"/>
      <point x="316" y="253"/>
      <point x="374" y="130"/>
      <point x="614" y="130" type="curve" smooth="yes"/>
      <point x="854" y="130"/>
      <point x="912" y="253"/>
      <point x="912" y="490" type="curve" smooth="yes"/>
      <point x="912" y="1491" type="line"/>
      <point x="1099" y="1491" type="line"/>
      <point x="1099" y="484" type="line" smooth="yes"/>
      <point x="1099" y="129"/>
      <point x="957" y="-25"/>
    </contour>
  </outline>
</glyph>
<glyph name="W" format="1">
  <advance width="1229"/>
  <unicode hex="0057"/>
  <outline>
    <contour>
      <point x="614" y="1492" type="move" name="top"/>
    </contour>
    <contour>
      <point x="869" y="191" type="line"/>
      <point x="965" y="1491" type="line"/>
      <point x="1140" y="1491" type="line"/>
      <point x="1004" y="0" type="line"/>
      <point x="789" y="0" type="line"/>
      <point x="616" y="699" type="line"/>
      <point x="432" y="0" type="line"/>
      <point x="223" y="0" type="line"/>
      <point x="90" y="1491" type="line"/>
      <point x="265" y="1491" type="line"/>
      <point x="358" y="191" type="line"/>
      <point x="512" y="845" type="line"/>
      <point x="721" y="845" type="line"/>
    </contour>
  </outline>
</glyph>
<glyph name="X" format="1">
  <advance width="1229"/>
  <unicode hex="0058"/>
  <outline>
    <contour>
      <point x="118" y="1491" type="line"/>
      <point x="340" y="1491" type="line"/>
      <point x="629" y="892" type="line"/>
      <point x="941" y="1491" type="line"/>
      <point x="1138" y="1491" type="line"/>
      <point x="749" y="763" type="line"/>
      <point x="1146" y="0" type="line"/>
      <point x="933" y="0" type="line"/>
      <point x="613" y="627" type="line"/>
      <point x="286" y="0" type="line"/>
      <point x="78" y="0" type="line"/>
      <point x="496" y="762" type="line"/>
    </contour>
  </outline>
</glyph>
<glyph name="Y" format="1">
  <advance width="1229"/>
  <unicode hex="0059"/>
  <outline>
    <contour>
      <point x="615" y="1491" type="move" name="top"/>
    </contour>
    <contour>
      <point x="702" y="0" type="line"/>
      <point x="515" y="0" type="line"/>
      <point x="515" y="593" type="line"/>
      <point x="69" y="1491" type="line"/>
      <point x="275" y="1491" type="line"/>
      <point x="610" y="774" type="line"/>
      <point x="949" y="1491" type="line"/>
      <point x="1160" y="1491" type="line"/>
      <point x="702" y="593" type="line"/>
    </contour>
  </outline>
</glyph>
<glyph name="Z" format="1">
  <advance width="1229"/>
  <unicode hex="005A"/>
  <outline>
    <contour>
      <point x="615" y="1491" type="move" name="top"/>
    </contour>
    <contour>
      <point x="397" y="146" type="line"/>
      <point x="1049" y="146" type="line"/>
      <point x="1049" y="0" type="line"/>
      <point x="156" y="0" type="line"/>
      <point x="156" y="143" type="line"/>
      <point x="803" y="1345" type="line"/>
      <point x="191" y="1345" type="line"/>
      <point x="191" y="1491" type="line"/>
      <point x="1058" y="1491" type="line"/>
      <point x="1058" y="1364" type="line"/>
    </contour>
  </outline>
</glyph>
<glyph name="bracketleft" format="1">
  <advance width="1229"/>
  <unicode hex="005B"/>
  <outline>
    <contour>
      <point x="395" y="-131" type="curve"/>
      <point x="395" y="1725" type="line"/>
      <point x="396" y="1728"/>
      <point x="397" y="1729"/>
      <point x="400" y="1730" type="curve"/>
      <point x="914" y="1730" type="line"/>
      <point x="917" y="1729"/>
      <point x="918" y="1728"/>
      <point x="919" y="1725" type="curve"/>
      <point x="919" y="1593" type="line"/>
      <point x="918" y="1590"/>
      <point x="917" y="1589"/>
      <point x="914" y="1588" type="curve"/>
      <point x="584" y="1588" type="line"/>
      <point x="584" y="6" type="line"/>
      <point x="915" y="6" type="line"/>
      <point x="918" y="5"/>
      <point x="919" y="4"/>
      <point x="920" y="1" type="curve"/>
      <point x="920" y="-131" type="line"/>
      <point x="919" y="-134"/>
      <point x="918" y="-135"/>
      <point x="915" y="-136" type="curve"/>
      <point x="400" y="-136" type="line"/>
      <point x="397" y="-135"/>
      <point x="396" y="-134"/>
    </contour>
  </outline>
</glyph>
<glyph name="asciicircum" format="1">
  <advance width="1229"/>
  <unicode hex="005E"/>
  <outline>
    <contour>
      <point x="644" y="1554" type="line"/>
      <point x="757" y="1554" type="line"/>
      <point x="1296" y="597" type="line"/>
      <point x="1125" y="597" type="line"/>
      <point x="698" y="1368" type="line"/>
      <point x="284" y="597" type="line"/>
      <point x="111" y="597" type="line"/>
    </contour>
  </outline>
</glyph>
<glyph name="grave" format="1">
  <advance width="1229"/>
  <unicode hex="0060"/>
  <outline>
    <contour>
      <point x="884.5" y="1097" type="move" name="_top"/>
    </contour>
    <contour>
      <point x="654" y="1705" type="line"/>
      <point x="937" y="1268" type="line"/>
      <point x="798" y="1268" type="line"/>
      <point x="418" y="1705" type="line"/>
    </contour>
  </outline>
</glyph>
<glyph name="a" format="1">
  <advance width="1229"/>
  <unicode hex="0061"/>
  <outline>
    <contour>
      <point x="1100" y="10" type="move" name="ogonek"/>
    </contour>
    <contour>
      <point x="617" y="1097" type="move" name="top"/>
    </contour>
    <contour>
      <point x="847" y="245" type="curve"/>
      <point x="847" y="525" type="line"/>
      <point x="700" y="504" type="line" smooth="yes"/>
      <point x="546" y="482"/>
      <point x="356" y="460"/>
      <point x="356" y="289" type="curve" smooth="yes"/>
      <point x="356" y="179"/>
      <point x="423" y="108"/>
      <point x="533" y="108" type="curve" smooth="yes"/>
      <point x="655" y="108"/>
      <point x="766" y="161"/>
    </contour>
    <contour>
      <point x="499" y="-25" type="curve" smooth="yes"/>
      <point x="320" y="-25"/>
      <point x="181" y="93"/>
      <point x="181" y="280" type="curve" smooth="yes"/>
      <point x="181" y="552"/>
      <point x="419" y="589"/>
      <point x="703" y="623" type="curve" smooth="yes"/>
      <point x="847" y="640" type="line"/>
      <point x="847" y="756" type="line" smooth="yes"/>
      <point x="847" y="923"/>
      <point x="781" y="991"/>
      <point x="633" y="991" type="curve" smooth="yes"/>
      <point x="528" y="991"/>
      <point x="346" y="946"/>
      <point x="290" y="921" type="curve"/>
      <point x="248" y="1061" type="line"/>
      <point x="345" y="1094"/>
      <point x="471" y="1130"/>
      <point x="630" y="1130" type="curve" smooth="yes"/>
      <point x="854" y="1130"/>
      <point x="1026" y="1034"/>
      <point x="1026" y="791" type="curve" smooth="yes"/>
      <point x="1026" y="0" type="line"/>
      <point x="878" y="0" type="line"/>
      <point x="854" y="127" type="line"/>
      <point x="772" y="43"/>
      <point x="628" y="-25"/>
    </contour>
  </outline>
</glyph>
<glyph name="c" format="1">
  <advance width="1229"/>
  <unicode hex="0063"/>
  <outline>
    <contour>
      <point x="637" y="0" type="move" name="bottom"/>
    </contour>
    <contour>
      <point x="637" y="1097" type="move" name="top"/>
    </contour>
    <contour>
      <point x="1026" y="72" type="line"/>
      <point x="954" y="5"/>
      <point x="834" y="-25"/>
      <point x="725" y="-25" type="curve" smooth="yes"/>
      <point x="384" y="-25"/>
      <point x="195" y="249"/>
      <point x="195" y="555" type="curve" smooth="yes"/>
      <point x="195" y="858"/>
      <point x="395" y="1130"/>
      <point x="722" y="1130" type="curve" smooth="yes"/>
      <point x="850" y="1130"/>
      <point x="957" y="1087"/>
      <point x="1018" y="1035" type="curve"/>
      <point x="942" y="924" type="line"/>
      <point x="895" y="956"/>
      <point x="832" y="990"/>
      <point x="726" y="990" type="curve" smooth="yes"/>
      <point x="518" y="990"/>
      <point x="379" y="805"/>
      <point x="379" y="551" type="curve" smooth="yes"/>
      <point x="379" y="300"/>
      <point x="512" y="115"/>
      <point x="733" y="115" type="curve" smooth="yes"/>
      <point x="832" y="115"/>
      <point x="891" y="142"/>
      <point x="952" y="185" type="curve"/>
    </contour>
  </outline>
</glyph>
<glyph name="d" format="1">
  <advance width="1229"/>
  <unicode hex="0064"/>
  <outline>
    <contour>
      <point x="615" y="549" type="move" name="center"/>
    </contour>
    <contour>
      <point x="878" y="555" type="curve" smooth="yes"/>
      <point x="878" y="797"/>
      <point x="835" y="990"/>
      <point x="586" y="990" type="curve" smooth="yes"/>
      <point x="348" y="990"/>
      <point x="304" y="769"/>
      <point x="304" y="545" type="curve" smooth="yes"/>
      <point x="304" y="331"/>
      <point x="356" y="115"/>
      <point x="586" y="115" type="curve" smooth="yes"/>
      <point x="827" y="115"/>
      <point x="878" y="346"/>
    </contour>
    <contour>
      <point x="878" y="946" type="curve"/>
      <point x="878" y="1545" type="line"/>
      <point x="1060" y="1565" type="line"/>
      <point x="1060" y="0" type="line"/>
      <point x="878" y="0" type="line"/>
      <point x="878" y="170" type="line"/>
      <point x="831" y="89"/>
      <point x="733" y="-25"/>
      <point x="564" y="-25" type="curve" smooth="yes"/>
      <point x="245" y="-25"/>
      <point x="121" y="238"/>
      <point x="121" y="558" type="curve" smooth="yes"/>
      <point x="121" y="869"/>
      <point x="256" y="1130"/>
      <point x="565" y="1130" type="curve" smooth="yes"/>
      <point x="741" y="1130"/>
      <point x="837" y="1046"/>
    </contour>
  </outline>
</glyph>
<glyph name="e" format="1">
  <advance width="1229"/>
  <unicode hex="0065"/>
  <outline>
    <contour>
      <point x="738" y="0" type="move" name="bottom"/>
    </contour>
    <contour>
      <point x="876" y="1" type="move" name="ogonek"/>
    </contour>
    <contour>
      <point x="685" y="1098" type="move" name="top"/>
    </contour>
    <contour>
      <point x="235" y="555" type="curve" smooth="yes"/>
      <point x="235" y="868"/>
      <point x="398" y="1131"/>
      <point x="680" y="1131" type="curve" smooth="yes"/>
      <point x="978" y="1131"/>
      <point x="1114" y="880"/>
      <point x="1114" y="581" type="curve" smooth="yes"/>
      <point x="1114" y="520" type="line"/>
      <point x="419" y="520" type="line"/>
      <point x="428" y="303"/>
      <point x="522" y="115"/>
      <point x="743" y="115" type="curve" smooth="yes"/>
      <point x="860" y="115"/>
      <point x="938" y="150"/>
      <point x="1012" y="212" type="curve"/>
      <point x="1092" y="111" type="line"/>
      <point x="1010" y="34"/>
      <point x="908" y="-25"/>
      <point x="737" y="-25" type="curve" smooth="yes"/>
      <point x="406" y="-25"/>
      <point x="235" y="224"/>
    </contour>
    <contour>
      <point x="940" y="653" type="line"/>
      <point x="930" y="821"/>
      <point x="880" y="990"/>
      <point x="704" y="990" type="curve" smooth="yes"/>
      <point x="506" y="990"/>
      <point x="445" y="831"/>
      <point x="425" y="653" type="curve"/>
    </contour>
  </outline>
</glyph>
<glyph name="g" format="1">
  <advance width="1229"/>
  <unicode hex="0067"/>
  <outline>
    <contour>
      <point x="615" y="1097" type="move" name="top"/>
    </contour>
    <contour>
      <point x="902" y="210" type="line"/>
      <point x="860" y="103"/>
      <point x="726.348" y="-0.00294273"/>
      <point x="571.371" y="-0.00294273" type="curve" smooth="yes"/>
      <point x="295.333" y="-0.00294273"/>
      <point x="126" y="253.595"/>
      <point x="126" y="556" type="curve" smooth="yes"/>
      <point x="126" y="880"/>
      <point x="264" y="1130"/>
      <point x="577" y="1130" type="curve" smooth="yes"/>
      <point x="722" y="1130"/>
      <point x="819" y="1061"/>
      <point x="888" y="948" type="curve"/>
      <point x="894" y="1097" type="line"/>
      <point x="1070" y="1097" type="line"/>
      <point x="1070" y="181" type="line" smooth="yes"/>
      <point x="1070" y="-281"/>
      <point x="909" y="-461"/>
      <point x="322" y="-461" type="curve"/>
      <point x="307" y="-321" type="line"/>
      <point x="730" y="-321"/>
      <point x="902" y="-249"/>
      <point x="902" y="137" type="curve" smooth="yes"/>
    </contour>
    <contour>
      <point x="597" y="990" type="curve" smooth="yes"/>
      <point x="362" y="990"/>
      <point x="309" y="788"/>
      <point x="309" y="550" type="curve" smooth="yes"/>
      <point x="309" y="360"/>
      <point x="378" y="162"/>
      <point x="589" y="162" type="curve" smooth="yes"/>
      <point x="823" y="162"/>
      <point x="888" y="361"/>
      <point x="888" y="556" type="curve" smooth="yes"/>
      <point x="888" y="784"/>
      <point x="833" y="990"/>
    </contour>
  </outline>
</glyph>
<glyph name="h" format="1">
  <advance width="1229"/>
  <unicode hex="0068"/>
  <outline>
    <contour>
      <point x="283" y="1297" type="move" name="center"/>
    </contour>
    <contour>
      <point x="719" y="1577" type="move" name="top"/>
    </contour>
    <contour>
      <point x="1044" y="662" type="curve" smooth="yes"/>
      <point x="1044" y="0" type="line"/>
      <point x="862" y="0" type="line"/>
      <point x="862" y="639" type="line" smooth="yes"/>
      <point x="862" y="827"/>
      <point x="833" y="990"/>
      <point x="650" y="990" type="curve" smooth="yes"/>
      <point x="479" y="990"/>
      <point x="364" y="856"/>
      <point x="364" y="746" type="curve" smooth="yes"/>
      <point x="364" y="0" type="line"/>
      <point x="182" y="0" type="line"/>
      <point x="182" y="1545" type="line"/>
      <point x="364" y="1565" type="line"/>
      <point x="364" y="964" type="line"/>
      <point x="417" y="1033"/>
      <point x="523" y="1130"/>
      <point x="707" y="1130" type="curve" smooth="yes"/>
      <point x="957" y="1130"/>
      <point x="1044" y="937"/>
    </contour>
  </outline>
</glyph>
<glyph name="i" format="1">
  <advance width="1229"/>
  <unicode hex="0069"/>
  <outline>
    <contour>
      <point x="538" y="1386" type="curve" smooth="yes"/>
      <point x="538" y="1485" type="line" smooth="yes"/>
      <point x="538" y="1535"/>
      <point x="609" y="1576"/>
      <point x="659" y="1576" type="curve" smooth="yes"/>
      <point x="709" y="1576"/>
      <point x="780" y="1535"/>
      <point x="780" y="1485" type="curve" smooth="yes"/>
      <point x="780" y="1386" type="line" smooth="yes"/>
      <point x="780" y="1336"/>
      <point x="709" y="1295"/>
      <point x="659" y="1295" type="curve" smooth="yes"/>
      <point x="609" y="1295"/>
      <point x="538" y="1336"/>
    </contour>
    <contour>
      <point x="255" y="957" type="line"/>
      <point x="255" y="1097" type="line"/>
      <point x="750" y="1097" type="line"/>
      <point x="750" y="140" type="line"/>
      <point x="1064" y="140" type="line"/>
      <point x="1064" y="0" type="line"/>
      <point x="220" y="0" type="line"/>
      <point x="220" y="140" type="line"/>
      <point x="568" y="140" type="line"/>
      <point x="568" y="957" type="line"/>
    </contour>
  </outline>
</glyph>
<glyph name="j" format="1">
  <advance width="1229"/>
  <unicode hex="006A"/>
  <outline>
    <contour>
      <point x="460" y="-220" type="line" smooth="yes"/>
      <point x="646" y="-220"/>
      <point x="671" y="-176"/>
      <point x="671" y="71" type="curve" smooth="yes"/>
      <point x="671" y="957" type="line"/>
      <point x="280" y="957" type="line"/>
      <point x="280" y="1097" type="line"/>
      <point x="853" y="1097" type="line"/>
      <point x="853" y="127" type="line" smooth="yes"/>
      <point x="853" y="-199"/>
      <point x="836" y="-360"/>
      <point x="461" y="-360" type="curve" smooth="yes"/>
      <point x="198" y="-360" type="line"/>
      <point x="198" y="-220" type="line"/>
    </contour>
    <contour>
      <point x="639" y="1386" type="curve" smooth="yes"/>
      <point x="639" y="1485" type="line" smooth="yes"/>
      <point x="639" y="1535"/>
      <point x="710" y="1576"/>
      <point x="760" y="1576" type="curve" smooth="yes"/>
      <point x="810" y="1576"/>
      <point x="881" y="1535"/>
      <point x="881" y="1485" type="curve" smooth="yes"/>
      <point x="881" y="1386" type="line" smooth="yes"/>
      <point x="881" y="1336"/>
      <point x="810" y="1295"/>
      <point x="760" y="1295" type="curve" smooth="yes"/>
      <point x="710" y="1295"/>
      <point x="639" y="1336"/>
    </contour>
  </outline>
</glyph>
<glyph name="k" format="1">
  <advance width="1229"/>
  <unicode hex="006B"/>
  <outline>
    <contour>
      <point x="615" y="0" type="move" name="bottom"/>
    </contour>
    <contour>
      <point x="392" y="620" type="line"/>
      <point x="865" y="1097" type="line"/>
      <point x="1095" y="1097" type="line"/>
      <point x="623" y="618" type="line"/>
      <point x="1162" y="0" type="line"/>
      <point x="946" y="0" type="line"/>
      <point x="490" y="543" type="line"/>
      <point x="392" y="457" type="line"/>
      <point x="392" y="0" type="line"/>
      <point x="210" y="0" type="line"/>
      <point x="210" y="1545" type="line"/>
      <point x="392" y="1565" type="line"/>
    </contour>
  </outline>
</glyph>
<glyph name="l" format="1">
  <advance width="1229"/>
  <unicode hex="006C"/>
  <outline>
    <contour>
      <point x="1201" y="1097" type="move" name="topright"/>
    </contour>
    <contour>
      <point x="707" y="0" type="move" name="bottom"/>
    </contour>
    <contour>
      <point x="551" y="1561" type="move" name="top"/>
    </contour>
    <contour>
      <point x="1031" y="0" type="line"/>
      <point x="886" y="0" type="line" smooth="yes"/>
      <point x="513" y="0"/>
      <point x="462" y="106"/>
      <point x="457" y="433" type="curve"/>
      <point x="457" y="1425" type="line"/>
      <point x="129" y="1425" type="line"/>
      <point x="129" y="1565" type="line"/>
      <point x="639" y="1565" type="line"/>
      <point x="639" y="442" type="line" smooth="yes"/>
      <point x="639" y="195"/>
      <point x="658" y="140"/>
      <point x="879" y="140" type="curve" smooth="yes"/>
      <point x="1031" y="140" type="line"/>
    </contour>
  </outline>
</glyph>
<glyph name="n" format="1">
  <advance width="1229"/>
  <unicode hex="006E"/>
  <outline>
    <contour>
      <point x="615" y="0" type="move" name="bottom"/>
    </contour>
    <contour>
      <point x="615" y="1097" type="move" name="top"/>
    </contour>
    <contour>
      <point x="713" y="1130" type="curve" smooth="yes"/>
      <point x="966" y="1130"/>
      <point x="1054" y="955"/>
      <point x="1054" y="698" type="curve" smooth="yes"/>
      <point x="1054" y="0" type="line"/>
      <point x="872" y="0" type="line"/>
      <point x="872" y="676.317" type="line" smooth="yes"/>
      <point x="872" y="842.828"/>
      <point x="866.598" y="990"/>
      <point x="649" y="990" type="curve" smooth="yes"/>
      <point x="511" y="990"/>
      <point x="378" y="898"/>
      <point x="378" y="742" type="curve" smooth="yes"/>
      <point x="378" y="0" type="line"/>
      <point x="196" y="0" type="line"/>
      <point x="196" y="1097" type="line"/>
      <point x="363" y="1097" type="line"/>
      <point x="373" y="978" type="line"/>
      <point x="436" y="1066"/>
      <point x="546" y="1130"/>
    </contour>
  </outline>
</glyph>
<glyph name="o" format="1">
  <advance width="1229"/>
  <unicode hex="006F"/>
  <outline>
    <contour>
      <point x="615" y="1097" type="move" name="top"/>
    </contour>
    <contour>
      <point x="322" y="550" type="curve" smooth="yes"/>
      <point x="322" y="336"/>
      <point x="384" y="115"/>
      <point x="612" y="115" type="curve" smooth="yes"/>
      <point x="847" y="115"/>
      <point x="909" y="335"/>
      <point x="909" y="553" type="curve" smooth="yes"/>
      <point x="909" y="770"/>
      <point x="848" y="990"/>
      <point x="612" y="990" type="curve" smooth="yes"/>
      <point x="384" y="990"/>
      <point x="322" y="764"/>
    </contour>
    <contour>
      <point x="612" y="1130" type="curve" smooth="yes"/>
      <point x="941" y="1130"/>
      <point x="1091" y="883"/>
      <point x="1091" y="558" type="curve" smooth="yes"/>
      <point x="1091" y="210"/>
      <point x="910" y="-25"/>
      <point x="612" y="-25" type="curve" smooth="yes"/>
      <point x="289" y="-25"/>
      <point x="138" y="232"/>
      <point x="138" y="551" type="curve" smooth="yes"/>
      <point x="138" y="897"/>
      <point x="316" y="1130"/>
    </contour>
  </outline>
</glyph>
<glyph name="p" format="1">
  <advance width="1229"/>
  <unicode hex="0070"/>
  <outline>
    <contour>
      <point x="339" y="555" type="curve" smooth="yes"/>
      <point x="339" y="319"/>
      <point x="406" y="115"/>
      <point x="647" y="115" type="curve" smooth="yes"/>
      <point x="876" y="115"/>
      <point x="924" y="341"/>
      <point x="924" y="555" type="curve" smooth="yes"/>
      <point x="924" y="779"/>
      <point x="877" y="990"/>
      <point x="644" y="990" type="curve" smooth="yes"/>
      <point x="402" y="990"/>
      <point x="339" y="797"/>
    </contour>
    <contour>
      <point x="669.869" y="-25.095" type="curve" smooth="yes"/>
      <point x="495.398" y="-25.095"/>
      <point x="392" y="83"/>
      <point x="341" y="175" type="curve"/>
      <point x="341" y="-421" type="line"/>
      <point x="159" y="-441" type="line"/>
      <point x="159" y="1097" type="line"/>
      <point x="341" y="1097" type="line"/>
      <point x="341" y="946" type="line"/>
      <point x="399" y="1046"/>
      <point x="503" y="1130"/>
      <point x="659" y="1130" type="curve" smooth="yes"/>
      <point x="968" y="1130"/>
      <point x="1107" y="879"/>
      <point x="1107" y="568" type="curve" smooth="yes"/>
      <point x="1107" y="251.384"/>
      <point x="975.819" y="-25.095"/>
    </contour>
  </outline>
</glyph>
<glyph name="q" format="1">
  <advance width="1229"/>
  <unicode hex="0071"/>
  <outline>
    <contour>
      <point x="907" y="555" type="curve" smooth="yes"/>
      <point x="907" y="797"/>
      <point x="835" y="990"/>
      <point x="586" y="990" type="curve" smooth="yes"/>
      <point x="348" y="990"/>
      <point x="289" y="779"/>
      <point x="289" y="555" type="curve" smooth="yes"/>
      <point x="289" y="341"/>
      <point x="356" y="115"/>
      <point x="586" y="115" type="curve" smooth="yes"/>
      <point x="827" y="115"/>
      <point x="907" y="319"/>
    </contour>
    <contour>
      <point x="907" y="920" type="curve"/>
      <point x="907" y="1097" type="line"/>
      <point x="1089" y="1097" type="line"/>
      <point x="1089" y="-421" type="line"/>
      <point x="909" y="-441" type="line"/>
      <point x="909" y="180" type="line"/>
      <point x="853" y="71"/>
      <point x="733" y="-25"/>
      <point x="564" y="-25" type="curve" smooth="yes"/>
      <point x="245" y="-25"/>
      <point x="106" y="248"/>
      <point x="106" y="568" type="curve" smooth="yes"/>
      <point x="106" y="879"/>
      <point x="256" y="1130"/>
      <point x="565" y="1130" type="curve" smooth="yes"/>
      <point x="741" y="1130"/>
      <point x="838" y="1040"/>
    </contour>
  </outline>
</glyph>
<glyph name="r" format="1">
  <advance width="1229"/>
  <unicode hex="0072"/>
  <outline>
    <contour>
      <point x="615" y="0" type="move" name="bottom"/>
    </contour>
    <contour>
      <point x="615" y="1097" type="move" name="top"/>
    </contour>
    <contour>
      <point x="543" y="0" type="line"/>
      <point x="361" y="0" type="line"/>
      <point x="361" y="1097" type="line"/>
      <point x="510" y="1097" type="line"/>
      <point x="525" y="894" type="line"/>
      <point x="616" y="1051"/>
      <point x="767" y="1130"/>
      <point x="948" y="1130" type="curve" smooth="yes"/>
      <point x="1029" y="1130" type="line"/>
      <point x="1029" y="961" type="line"/>
      <point x="922" y="961" type="line" smooth="yes"/>
      <point x="698" y="961"/>
      <point x="543" y="853"/>
      <point x="543" y="610" type="curve" smooth="yes"/>
    </contour>
  </outline>
</glyph>
<glyph name="s" format="1">
  <advance width="1229"/>
  <unicode hex="0073"/>
  <outline>
    <contour>
      <point x="620" y="0" type="move" name="bottom"/>
    </contour>
    <contour>
      <point x="620" y="1097" type="move" name="top"/>
    </contour>
    <contour>
      <point x="1028" y="296" type="curve" smooth="yes"/>
      <point x="1028" y="89"/>
      <point x="853" y="-25"/>
      <point x="642" y="-25" type="curve" smooth="yes"/>
      <point x="478" y="-25"/>
      <point x="316" y="24"/>
      <point x="249" y="74" type="curve"/>
      <point x="324" y="195" type="line"/>
      <point x="365" y="169"/>
      <point x="467" y="117"/>
      <point x="619" y="117" type="curve" smooth="yes"/>
      <point x="764" y="117"/>
      <point x="866" y="184"/>
      <point x="866" y="301" type="curve" smooth="yes"/>
      <point x="866" y="371"/>
      <point x="840" y="436"/>
      <point x="705" y="469" type="curve" smooth="yes"/>
      <point x="519" y="515" type="line" smooth="yes"/>
      <point x="297" y="569"/>
      <point x="252" y="680"/>
      <point x="252" y="816" type="curve" smooth="yes"/>
      <point x="252" y="970"/>
      <point x="374" y="1128"/>
      <point x="614" y="1130" type="curve"/>
      <point x="627" y="1130" type="line" smooth="yes"/>
      <point x="765" y="1130"/>
      <point x="884" y="1099"/>
      <point x="966" y="1055" type="curve"/>
      <point x="905" y="937" type="line"/>
      <point x="846" y="962"/>
      <point x="750" y="998"/>
      <point x="631" y="998" type="curve" smooth="yes"/>
      <point x="512" y="997"/>
      <point x="418" y="937"/>
      <point x="418" y="824" type="curve" smooth="yes"/>
      <point x="418" y="756"/>
      <point x="440" y="701"/>
      <point x="562" y="670" type="curve" smooth="yes"/>
      <point x="753" y="622" type="line" smooth="yes"/>
      <point x="933" y="577"/>
      <point x="1028" y="481"/>
    </contour>
  </outline>
</glyph>
<glyph name="t" format="1">
  <advance width="1229"/>
  <unicode hex="0074"/>
  <outline>
    <contour>
      <point x="711" y="0" type="move" name="bottom"/>
    </contour>
    <contour>
      <point x="501" y="569" type="move" name="center"/>
    </contour>
    <contour>
      <point x="589" y="957" type="line"/>
      <point x="589" y="442" type="line" smooth="yes"/>
      <point x="589" y="223"/>
      <point x="617" y="142"/>
      <point x="779" y="138" type="curve"/>
      <point x="1030" y="138" type="line"/>
      <point x="1030" y="-3" type="line"/>
      <point x="754" y="-3" type="line" smooth="yes"/>
      <point x="462" y="-3"/>
      <point x="407" y="158.837"/>
      <point x="407" y="488" type="curve" smooth="yes"/>
      <point x="407" y="957" type="line"/>
      <point x="97" y="957" type="line"/>
      <point x="117" y="1097" type="line"/>
      <point x="407" y="1097" type="line"/>
      <point x="407" y="1475" type="line"/>
      <point x="589" y="1529" type="line"/>
      <point x="589" y="1097" type="line"/>
      <point x="1030" y="1097" type="line"/>
      <point x="1030" y="957" type="line"/>
    </contour>
  </outline>
</glyph>
<glyph name="u" format="1">
  <advance width="1229"/>
  <unicode hex="0075"/>
  <outline>
    <contour>
      <point x="615" y="1097" type="move" name="top"/>
    </contour>
    <contour>
      <point x="615" y="-25" type="curve" smooth="yes"/>
      <point x="349" y="-25"/>
      <point x="191" y="91"/>
      <point x="191" y="356" type="curve" smooth="yes"/>
      <point x="191" y="1097" type="line"/>
      <point x="373" y="1097" type="line"/>
      <point x="373" y="340" type="line" smooth="yes"/>
      <point x="373" y="183"/>
      <point x="448" y="115"/>
      <point x="615" y="115" type="curve" smooth="yes"/>
      <point x="782" y="115"/>
      <point x="857" y="183"/>
      <point x="857" y="340" type="curve" smooth="yes"/>
      <point x="857" y="1097" type="line"/>
      <point x="1039" y="1097" type="line"/>
      <point x="1039" y="356" type="line" smooth="yes"/>
      <point x="1039" y="91"/>
      <point x="881" y="-25"/>
    </contour>
  </outline>
</glyph>
<glyph name="v" format="1">
  <advance width="1229"/>
  <unicode hex="0076"/>
  <outline>
    <contour>
      <point x="617" y="164" type="line"/>
      <point x="730" y="471"/>
      <point x="823" y="787"/>
      <point x="931" y="1097" type="curve"/>
      <point x="1133" y="1097" type="line"/>
      <point x="714" y="0" type="line"/>
      <point x="511" y="0" type="line"/>
      <point x="93" y="1097" type="line"/>
      <point x="297" y="1097" type="line"/>
    </contour>
  </outline>
</glyph>
<glyph name="w" format="1">
  <advance width="1229"/>
  <unicode hex="0077"/>
  <outline>
    <contour>
      <point x="615" y="1097" type="move" name="top"/>
    </contour>
    <contour>
      <point x="432" y="0" type="line"/>
      <point x="246" y="0" type="line"/>
      <point x="32" y="1097" type="line"/>
      <point x="215" y="1097" type="line"/>
      <point x="346" y="194" type="line"/>
      <point x="521" y="1097" type="line"/>
      <point x="738" y="1097" type="line"/>
      <point x="909" y="197" type="line"/>
      <point x="1024" y="1097" type="line"/>
      <point x="1196" y="1097" type="line"/>
      <point x="995" y="0" type="line"/>
      <point x="823" y="0" type="line"/>
      <point x="628" y="953" type="line"/>
    </contour>
  </outline>
</glyph>
<glyph name="x" format="1">
  <advance width="1229"/>
  <unicode hex="0078"/>
  <outline>
    <contour>
      <point x="164" y="1097" type="line"/>
      <point x="366" y="1097" type="line"/>
      <point x="627" y="668" type="line"/>
      <point x="888" y="1097" type="line"/>
      <point x="1077" y="1097" type="line"/>
      <point x="740" y="565" type="line"/>
      <point x="1089" y="0" type="line"/>
      <point x="901" y="0" type="line"/>
      <point x="625" y="443" type="line"/>
      <point x="340" y="0" type="line"/>
      <point x="146" y="0" type="line"/>
      <point x="500" y="560" type="line"/>
    </contour>
  </outline>
</glyph>
<glyph name="y" format="1">
  <advance width="1229"/>
  <unicode hex="0079"/>
  <outline>
    <contour>
      <point x="615" y="1097" type="move" name="top"/>
    </contour>
    <contour>
      <point x="643" y="197" type="line"/>
      <point x="934" y="1097" type="line"/>
      <point x="1131" y="1097" type="line"/>
      <point x="1131" y="1097"/>
      <point x="845" y="271"/>
      <point x="753" y="32" type="curve" smooth="yes"/>
      <point x="745" y="10"/>
      <point x="733" y="-19"/>
      <point x="724" y="-43" type="curve" smooth="yes"/>
      <point x="594" y="-373"/>
      <point x="494" y="-410"/>
      <point x="191" y="-410" type="curve"/>
      <point x="170" y="-263" type="line"/>
      <point x="408" y="-263"/>
      <point x="462" y="-281"/>
      <point x="551" y="10" type="curve"/>
      <point x="99" y="1097" type="line"/>
      <point x="290" y="1097" type="line"/>
    </contour>
  </outline>
</glyph>
<glyph name="z" format="1">
  <advance width="1229"/>
  <unicode hex="007A"/>
  <outline>
    <contour>
      <point x="632" y="1097" type="move" name="top"/>
    </contour>
    <contour>
      <point x="253" y="1097" type="line"/>
      <point x="960" y="1097" type="line"/>
      <point x="960" y="959" type="line"/>
      <point x="426" y="140" type="line"/>
      <point x="996" y="138" type="line"/>
      <point x="996" y="0" type="line"/>
      <point x="234" y="0" type="line"/>
      <point x="234" y="142" type="line"/>
      <point x="758" y="957" type="line"/>
      <point x="253" y="957" type="line"/>
    </contour>
  </outline>
</glyph>
<glyph name="braceleft" format="1">
  <advance width="1229"/>
  <unicode hex="007B"/>
  <outline>
    <contour>
      <point x="514" y="455" type="line" smooth="yes"/>
      <point x="514" y="619"/>
      <point x="386" y="699"/>
      <point x="225" y="709" type="curve"/>
      <point x="225" y="844" type="line"/>
      <point x="386" y="854"/>
      <point x="514" y="933"/>
      <point x="514" y="1097" type="curve" smooth="yes"/>
      <point x="514" y="1330" type="line" smooth="yes"/>
      <point x="514" y="1586.93"/>
      <point x="608.21" y="1706"/>
      <point x="869.71" y="1706" type="curve" smooth="yes"/>
      <point x="873" y="1706" type="line"/>
      <point x="1101" y="1705" type="line"/>
      <point x="1101" y="1569" type="line"/>
      <point x="873" y="1569" type="line" smooth="yes"/>
      <point x="743" y="1569"/>
      <point x="736" y="1460"/>
      <point x="736" y="1330" type="curve" smooth="yes"/>
      <point x="736" y="1089" type="line" smooth="yes"/>
      <point x="736" y="890"/>
      <point x="639" y="834"/>
      <point x="490" y="776" type="curve"/>
      <point x="639" y="718"/>
      <point x="736" y="663"/>
      <point x="736" y="464" type="curve" smooth="yes"/>
      <point x="736" y="223" type="line" smooth="yes"/>
      <point x="736" y="93"/>
      <point x="743" y="-17"/>
      <point x="873" y="-17" type="curve" smooth="yes"/>
      <point x="1101" y="-17" type="line"/>
      <point x="1101" y="-152" type="line"/>
      <point x="873" y="-153.006" type="line"/>
      <point x="869.71" y="-153.006" type="line" smooth="yes"/>
      <point x="608.21" y="-153.006"/>
      <point x="514" y="-33.9254"/>
      <point x="514" y="223" type="curve" smooth="yes"/>
    </contour>
  </outline>
</glyph>
<glyph name="bar" format="1">
  <advance width="1229"/>
  <unicode hex="007C"/>
  <outline>
    <contour>
      <point x="530" y="-441" type="line"/>
      <point x="530" y="1585" type="line"/>
      <point x="691" y="1585" type="line"/>
      <point x="691" y="-441" type="line"/>
    </contour>
  </outline>
</glyph>
<glyph name="braceright" format="1">
  <advance width="1229"/>
  <unicode hex="007D"/>
  <outline>
    <contour>
      <point x="790" y="1097" type="line" smooth="yes"/>
      <point x="790" y="933"/>
      <point x="918" y="854"/>
      <point x="1079" y="844" type="curve"/>
      <point x="1079" y="709" type="line"/>
      <point x="918" y="699"/>
      <point x="790" y="619"/>
      <point x="790" y="455" type="curve" smooth="yes"/>
      <point x="790" y="223" type="line" smooth="yes"/>
      <point x="790" y="-33.9254"/>
      <point x="695.79" y="-153.006"/>
      <point x="434.29" y="-153.006" type="curve" smooth="yes"/>
      <point x="431" y="-153.006" type="line"/>
      <point x="202" y="-152" type="line"/>
      <point x="202" y="-17" type="line"/>
      <point x="431" y="-17" type="line" smooth="yes"/>
      <point x="561" y="-17"/>
      <point x="568" y="93"/>
      <point x="568" y="223" type="curve" smooth="yes"/>
      <point x="568" y="464" type="line" smooth="yes"/>
      <point x="568" y="663"/>
      <point x="664" y="718"/>
      <point x="813" y="776" type="curve"/>
      <point x="664" y="834"/>
      <point x="568" y="890"/>
      <point x="568" y="1089" type="curve" smooth="yes"/>
      <point x="568" y="1330" type="line" smooth="yes"/>
      <point x="568" y="1460"/>
      <point x="561" y="1569"/>
      <point x="431" y="1569" type="curve" smooth="yes"/>
      <point x="202" y="1569" type="line"/>
      <point x="202" y="1705" type="line"/>
      <point x="431" y="1706" type="line"/>
      <point x="434.29" y="1706" type="line" smooth="yes"/>
      <point x="695.79" y="1706"/>
      <point x="790" y="1586.93"/>
      <point x="790" y="1330" type="curve" smooth="yes"/>
    </contour>
  </outline>
</glyph>
<glyph name="asciitilde" format="1">
  <advance width="1229"/>
  <unicode hex="007E"/>
  <outline>
    <contour>
      <point x="1332" y="1108" type="line"/>
      <point x="1297" y="946"/>
      <point x="1261" y="781"/>
      <point x="1064" y="781" type="curve" smooth="yes"/>
      <point x="981" y="781"/>
      <point x="891" y="822"/>
      <point x="815" y="850" type="curve" smooth="yes"/>
      <point x="712" y="888"/>
      <point x="592" y="936"/>
      <point x="483" y="969" type="curve" smooth="yes"/>
      <point x="474" y="972"/>
      <point x="465" y="974"/>
      <point x="455" y="974" type="curve" smooth="yes"/>
      <point x="371" y="974"/>
      <point x="345" y="860"/>
      <point x="334" y="784" type="curve"/>
      <point x="152" y="844" type="line"/>
      <point x="180" y="985"/>
      <point x="254" y="1150"/>
      <point x="420" y="1150" type="curve" smooth="yes"/>
      <point x="519" y="1150"/>
      <point x="616" y="1108"/>
      <point x="698" y="1075" type="curve" smooth="yes"/>
      <point x="794" y="1036"/>
      <point x="903" y="989"/>
      <point x="1008" y="963" type="curve" smooth="yes"/>
      <point x="1015" y="961"/>
      <point x="1023" y="959"/>
      <point x="1031" y="959" type="curve" smooth="yes"/>
      <point x="1116" y="959"/>
      <point x="1134" y="1077"/>
      <point x="1148" y="1150" type="curve"/>
    </contour>
  </outline>
</glyph>
<glyph name="yen" format="1">
  <advance width="1229"/>
  <unicode hex="00A5"/>
  <outline>
    <contour>
      <point x="611" y="0" type="line"/>
      <point x="611" y="307" type="line"/>
      <point x="171" y="307" type="line"/>
      <point x="159" y="459" type="line"/>
      <point x="610" y="459" type="line"/>
      <point x="610" y="623" type="line"/>
      <point x="163" y="623" type="line"/>
      <point x="163" y="778" type="line"/>
      <point x="571" y="778" type="line"/>
      <point x="78" y="1541" type="line"/>
      <point x="305" y="1541" type="line"/>
      <point x="443" y="1314"/>
      <point x="581" y="1095"/>
      <point x="715" y="864" type="curve"/>
      <point x="1127" y="1541" type="line"/>
      <point x="1334" y="1541" type="line"/>
      <point x="830" y="778" type="line"/>
      <point x="1232" y="778" type="line"/>
      <point x="1232" y="623" type="line"/>
      <point x="800" y="623" type="line"/>
      <point x="800" y="459" type="line"/>
      <point x="1236" y="459" type="line"/>
      <point x="1236" y="307" type="line"/>
      <point x="803" y="307" type="line"/>
      <point x="803" y="0" type="line"/>
    </contour>
  </outline>
</glyph>
<glyph name="section" format="1">
  <advance width="1229"/>
  <unicode hex="00A7"/>
  <outline>
    <contour>
      <point x="692" y="594" type="curve"/>
      <point x="755" y="631"/>
      <point x="849" y="689"/>
      <point x="849" y="786" type="curve" smooth="yes"/>
      <point x="849" y="909"/>
      <point x="668" y="949"/>
      <point x="586" y="991" type="curve"/>
      <point x="521" y="957"/>
      <point x="439" y="902"/>
      <point x="439" y="806" type="curve" smooth="yes"/>
      <point x="439" y="681"/>
      <point x="603" y="631"/>
    </contour>
    <contour>
      <point x="960" y="1416" type="line"/>
      <point x="889" y="1447"/>
      <point x="807" y="1473"/>
      <point x="711" y="1473" type="curve" smooth="yes"/>
      <point x="594" y="1473"/>
      <point x="473" y="1448"/>
      <point x="473" y="1330" type="curve" smooth="yes"/>
      <point x="473" y="1180"/>
      <point x="651" y="1134"/>
      <point x="760" y="1089" type="curve" smooth="yes"/>
      <point x="886" y="1036"/>
      <point x="1047" y="976"/>
      <point x="1047" y="800" type="curve" smooth="yes"/>
      <point x="1047" y="659"/>
      <point x="933" y="577"/>
      <point x="842" y="522" type="curve"/>
      <point x="932" y="476"/>
      <point x="1021" y="401"/>
      <point x="1021" y="274" type="curve" smooth="yes"/>
      <point x="1021" y="48"/>
      <point x="797" y="-52"/>
      <point x="572" y="-52" type="curve" smooth="yes"/>
      <point x="457" y="-52"/>
      <point x="359" y="-31"/>
      <point x="273" y="5" type="curve"/>
      <point x="272" y="166" type="line"/>
      <point x="354" y="128"/>
      <point x="453" y="97"/>
      <point x="566" y="97" type="curve" smooth="yes"/>
      <point x="692" y="97"/>
      <point x="829" y="138"/>
      <point x="829" y="264" type="curve" smooth="yes"/>
      <point x="829" y="399"/>
      <point x="635" y="440"/>
      <point x="536" y="481" type="curve" smooth="yes"/>
      <point x="402" y="536"/>
      <point x="244" y="606"/>
      <point x="244" y="793" type="curve" smooth="yes"/>
      <point x="244" y="935"/>
      <point x="355" y="1010"/>
      <point x="451" y="1060" type="curve"/>
      <point x="362" y="1112"/>
      <point x="283" y="1185"/>
      <point x="283" y="1315" type="curve" smooth="yes"/>
      <point x="283" y="1541"/>
      <point x="480" y="1621"/>
      <point x="706" y="1621" type="curve" smooth="yes"/>
      <point x="798" y="1621"/>
      <point x="884" y="1598"/>
      <point x="959" y="1576" type="curve"/>
    </contour>
  </outline>
</glyph>
<glyph name="dieresis" format="1">
  <advance width="1229"/>
  <unicode hex="00A8"/>
  <outline>
    <contour>
      <point x="765" y="1279" type="curve"/>
      <point x="770" y="1337"/>
      <point x="774" y="1396"/>
      <point x="774" y="1458" type="curve"/>
      <point x="833" y="1452"/>
      <point x="894" y="1448"/>
      <point x="958" y="1448" type="curve"/>
      <point x="950" y="1391"/>
      <point x="946" y="1331"/>
      <point x="946" y="1268" type="curve"/>
      <point x="885" y="1275"/>
      <point x="825" y="1279"/>
    </contour>
    <contour>
      <point x="330" y="1448" type="curve"/>
      <point x="394" y="1448"/>
      <point x="455" y="1452"/>
      <point x="514" y="1458" type="curve"/>
      <point x="514" y="1397"/>
      <point x="518" y="1338"/>
      <point x="525" y="1279" type="curve"/>
      <point x="462" y="1279"/>
      <point x="401" y="1275"/>
      <point x="341" y="1268" type="curve"/>
      <point x="341" y="1329"/>
      <point x="337" y="1389"/>
    </contour>
    <contour>
      <point x="644" y="1097" type="move" name="_top"/>
    </contour>
  </outline>
</glyph>
<glyph name="ordfeminine" format="1">
  <advance width="1229"/>
  <unicode hex="00AA"/>
  <outline>
    <contour>
      <point x="580" y="945" type="curve" smooth="yes"/>
      <point x="718" y="945"/>
      <point x="798" y="1041"/>
      <point x="798" y="1178" type="curve" smooth="yes"/>
      <point x="798" y="1205" type="line"/>
      <point x="670" y="1182"/>
      <point x="429" y="1208"/>
      <point x="429" y="1061" type="curve" smooth="yes"/>
      <point x="429" y="973"/>
      <point x="493" y="945"/>
    </contour>
    <contour>
      <point x="327" y="1466" type="line"/>
      <point x="383" y="1560"/>
      <point x="493" y="1604"/>
      <point x="641" y="1604" type="curve" smooth="yes"/>
      <point x="824" y="1604"/>
      <point x="945" y="1523"/>
      <point x="945" y="1340" type="curve" smooth="yes"/>
      <point x="945" y="1254"/>
      <point x="941" y="1170"/>
      <point x="941" y="1086" type="curve" smooth="yes"/>
      <point x="941" y="1008"/>
      <point x="944" y="930"/>
      <point x="951" y="853" type="curve"/>
      <point x="806" y="853" type="line"/>
      <point x="799" y="933" type="line"/>
      <point x="747" y="868"/>
      <point x="664" y="834"/>
      <point x="555" y="834" type="curve" smooth="yes"/>
      <point x="406" y="834"/>
      <point x="276" y="909"/>
      <point x="276" y="1058" type="curve" smooth="yes"/>
      <point x="276" y="1306"/>
      <point x="576" y="1286"/>
      <point x="797" y="1315" type="curve"/>
      <point x="797" y="1441"/>
      <point x="760" y="1486"/>
      <point x="633" y="1486" type="curve" smooth="yes"/>
      <point x="527" y="1486"/>
      <point x="446" y="1452"/>
      <point x="401" y="1384" type="curve"/>
    </contour>
  </outline>
</glyph>
<glyph name="guillemotleft" format="1">
  <advance width="1229"/>
  <unicode hex="00AB"/>
  <outline>
    <contour>
      <point x="1086" y="992" type="line"/>
      <point x="794" y="588" type="line"/>
      <point x="1077" y="185" type="line"/>
      <point x="904" y="185" type="line"/>
      <point x="607" y="588" type="line"/>
      <point x="910" y="992" type="line"/>
    </contour>
    <contour>
      <point x="679" y="992" type="line"/>
      <point x="386" y="588" type="line"/>
      <point x="668" y="185" type="line"/>
      <point x="495" y="185" type="line"/>
      <point x="197" y="588" type="line"/>
      <point x="502" y="992" type="line"/>
    </contour>
  </outline>
</glyph>
<glyph name="logicalnot" format="1">
  <advance width="1229"/>
  <unicode hex="00AC"/>
  <outline>
    <contour>
      <point x="1146" y="715" type="line"/>
      <point x="152" y="715" type="line"/>
      <point x="152" y="866" type="line"/>
      <point x="1311" y="866" type="line"/>
      <point x="1311" y="258" type="line"/>
      <point x="1146" y="258" type="line"/>
    </contour>
  </outline>
</glyph>
<glyph name="registered" format="1">
  <advance width="1229"/>
  <unicode hex="00AE"/>
  <outline>
    <contour>
      <point x="853" y="848" type="line"/>
      <point x="880.787" y="848" type="line" smooth="yes"/>
      <point x="1024.88" y="848"/>
      <point x="1160" y="852.398"/>
      <point x="1160" y="999" type="curve" smooth="yes"/>
      <point x="1160" y="1123"/>
      <point x="1075" y="1162"/>
      <point x="954" y="1162" type="curve" smooth="yes"/>
      <point x="715" y="1162" type="line"/>
      <point x="715" y="848" type="line"/>
    </contour>
    <contour>
      <point x="1167" y="296" type="line"/>
      <point x="1083" y="438"/>
      <point x="1000" y="625"/>
      <point x="869" y="721" type="curve"/>
      <point x="718" y="721" type="line"/>
      <point x="718" y="296" type="line"/>
      <point x="554" y="296" type="line"/>
      <point x="554" y="1294" type="line"/>
      <point x="855" y="1294" type="line"/>
      <point x="854" y="1293" type="line"/>
      <point x="1089" y="1293"/>
      <point x="1331" y="1248"/>
      <point x="1331" y="1014" type="curve" smooth="yes"/>
      <point x="1331" y="842"/>
      <point x="1194" y="758"/>
      <point x="1038" y="740" type="curve"/>
      <point x="1166" y="618"/>
      <point x="1257" y="449"/>
      <point x="1353" y="296" type="curve"/>
    </contour>
    <contour>
      <point x="146" y="788" type="curve" smooth="yes"/>
      <point x="146" y="315"/>
      <point x="554" y="90"/>
      <point x="928" y="90" type="curve" smooth="yes"/>
      <point x="1371" y="90"/>
      <point x="1650" y="422"/>
      <point x="1650" y="761" type="curve" smooth="yes"/>
      <point x="1650" y="1223"/>
      <point x="1283" y="1482"/>
      <point x="922" y="1482" type="curve" smooth="yes"/>
      <point x="449" y="1482"/>
      <point x="146" y="1179"/>
    </contour>
    <contour>
      <point x="1793" y="785" type="line"/>
      <point x="1793" y="431"/>
      <point x="1588" y="199"/>
      <point x="1353" y="74" type="curve" smooth="yes"/>
      <point x="1232" y="10"/>
      <point x="1081" y="-37"/>
      <point x="904" y="-37" type="curve" smooth="yes"/>
      <point x="536" y="-37"/>
      <point x="274" y="139"/>
      <point x="129" y="366" type="curve" smooth="yes"/>
      <point x="58" y="477"/>
      <point x="6" y="615"/>
      <point x="6" y="786" type="curve" smooth="yes"/>
      <point x="6" y="1141"/>
      <point x="215" y="1371"/>
      <point x="449" y="1497" type="curve" smooth="yes"/>
      <point x="570" y="1562"/>
      <point x="720" y="1608"/>
      <point x="898" y="1608" type="curve" smooth="yes"/>
      <point x="1266" y="1608"/>
      <point x="1524" y="1430"/>
      <point x="1669" y="1203" type="curve" smooth="yes"/>
      <point x="1739" y="1093"/>
      <point x="1792" y="954"/>
      <point x="1792" y="785" type="curve"/>
    </contour>
  </outline>
</glyph>
<glyph name="macron" format="1">
  <advance width="1229"/>
  <unicode hex="00AF"/>
  <outline>
    <contour>
      <point x="275" y="1499" type="line"/>
      <point x="275" y="1639" type="line"/>
      <point x="954" y="1639" type="line"/>
      <point x="954" y="1499" type="line"/>
    </contour>
    <contour>
      <point x="614.5" y="1097" type="move" name="_top"/>
    </contour>
  </outline>
</glyph>
<glyph name="plusminus" format="1">
  <advance width="1229"/>
  <unicode hex="00B1"/>
  <outline>
    <contour>
      <point x="152" y="150" type="line"/>
      <point x="1312" y="150" type="line"/>
      <point x="1312" y="0" type="line"/>
      <point x="152" y="0" type="line"/>
    </contour>
    <contour>
      <point x="644" y="1201" type="line"/>
      <point x="810" y="1201" type="line"/>
      <point x="810" y="795" type="line"/>
      <point x="1309" y="795" type="line"/>
      <point x="1309" y="645" type="line"/>
      <point x="813" y="645" type="line"/>
      <point x="813" y="242" type="line"/>
      <point x="647" y="242" type="line"/>
      <point x="647" y="645" type="line"/>
      <point x="152" y="645" type="line"/>
      <point x="152" y="795" type="line"/>
      <point x="644" y="795" type="line"/>
    </contour>
  </outline>
</glyph>
<glyph name="cedilla" format="1">
  <advance width="1229"/>
  <unicode hex="00B8"/>
  <outline>
    <contour>
      <point x="616" y="3" type="move" name="_bottom"/>
    </contour>
    <contour>
      <point x="731" y="-261" type="curve" smooth="yes"/>
      <point x="731" y="-199"/>
      <point x="672" y="-183"/>
      <point x="609" y="-183" type="curve" smooth="yes"/>
      <point x="581" y="-183"/>
      <point x="561" y="-186"/>
      <point x="534" y="-188" type="curve"/>
      <point x="569" y="19" type="line"/>
      <point x="677" y="19" type="line"/>
      <point x="657" y="-98" type="line"/>
      <point x="666" y="-97" type="line"/>
      <point x="787" y="-97"/>
      <point x="888" y="-139"/>
      <point x="888" y="-260" type="curve" smooth="yes"/>
      <point x="888" y="-395"/>
      <point x="752" y="-428"/>
      <point x="617" y="-428" type="curve" smooth="yes"/>
      <point x="548" y="-428"/>
      <point x="487" y="-417"/>
      <point x="428" y="-405" type="curve"/>
      <point x="437" y="-313" type="line"/>
      <point x="488" y="-325"/>
      <point x="545" y="-339"/>
      <point x="604" y="-339" type="curve" smooth="yes"/>
      <point x="668" y="-339"/>
      <point x="731" y="-325"/>
    </contour>
  </outline>
</glyph>
<glyph name="onehalf" format="1">
  <advance width="1229"/>
  <unicode hex="00BD"/>
  <outline>
    <contour>
      <point x="171" y="1381" type="line"/>
      <point x="116" y="1353"/>
      <point x="61" y="1329"/>
      <point x="2" y="1306" type="curve"/>
      <point x="3" y="1447" type="line"/>
      <point x="71" y="1470"/>
      <point x="131" y="1498"/>
      <point x="188" y="1533" type="curve"/>
      <point x="304" y="1549" type="line"/>
      <point x="304" y="781" type="line"/>
      <point x="440" y="781" type="line"/>
      <point x="440" y="656" type="line"/>
      <point x="36" y="656" type="line"/>
      <point x="36" y="785" type="line"/>
      <point x="171" y="785" type="line"/>
    </contour>
    <contour>
      <point x="323" y="1" type="line"/>
      <point x="157" y="1" type="line"/>
      <point x="1160" y="1560" type="line"/>
      <point x="1323" y="1560" type="line"/>
    </contour>
    <contour>
      <point x="1207" y="881" type="curve" smooth="yes"/>
      <point x="1381" y="881"/>
      <point x="1521" y="809"/>
      <point x="1521" y="635" type="curve" smooth="yes"/>
      <point x="1521" y="509"/>
      <point x="1444" y="410"/>
      <point x="1377" y="337" type="curve" smooth="yes"/>
      <point x="1302" y="254"/>
      <point x="1199" y="171"/>
      <point x="1117" y="101" type="curve"/>
      <point x="1520" y="101" type="line"/>
      <point x="1520" y="-26" type="line"/>
      <point x="914" y="-26" type="line"/>
      <point x="914" y="94" type="line"/>
      <point x="1062" y="229"/>
      <point x="1247" y="372"/>
      <point x="1351" y="550" type="curve" smooth="yes"/>
      <point x="1369" y="581"/>
      <point x="1378" y="608"/>
      <point x="1378" y="632" type="curve"/>
      <point x="1380" y="632" type="line"/>
      <point x="1380" y="717"/>
      <point x="1309" y="754"/>
      <point x="1224" y="754" type="curve" smooth="yes"/>
      <point x="1118" y="754"/>
      <point x="1054" y="686"/>
      <point x="1017" y="612" type="curve"/>
      <point x="924" y="697" type="line"/>
      <point x="968" y="795"/>
      <point x="1067" y="881"/>
    </contour>
  </outline>
</glyph>
<glyph name="threequarters" format="1">
  <advance width="1229"/>
  <unicode hex="00BE"/>
  <outline>
    <contour>
      <point x="1381" y="363" type="line"/>
      <point x="1381" y="509" type="line" smooth="yes"/>
      <point x="1381" y="582"/>
      <point x="1381" y="654"/>
      <point x="1383" y="726" type="curve"/>
      <point x="1119" y="363" type="line"/>
    </contour>
    <contour>
      <point x="86" y="846" type="line"/>
      <point x="135" y="802"/>
      <point x="200" y="761"/>
      <point x="287" y="761" type="curve"/>
      <point x="287" y="760" type="line"/>
      <point x="390" y="760"/>
      <point x="480" y="804"/>
      <point x="480" y="907" type="curve" smooth="yes"/>
      <point x="480" y="1026"/>
      <point x="362" y="1053"/>
      <point x="243" y="1053" type="curve"/>
      <point x="181" y="1051" type="line"/>
      <point x="181" y="1181" type="line"/>
      <point x="310" y="1181"/>
      <point x="453" y="1182"/>
      <point x="453" y="1312" type="curve" smooth="yes"/>
      <point x="453" y="1403"/>
      <point x="389" y="1434"/>
      <point x="298" y="1434" type="curve" smooth="yes"/>
      <point x="209" y="1434"/>
      <point x="138" y="1391"/>
      <point x="85" y="1350" type="curve"/>
      <point x="20" y="1454" type="line"/>
      <point x="87" y="1517"/>
      <point x="178" y="1564"/>
      <point x="300" y="1564" type="curve" smooth="yes"/>
      <point x="467" y="1564"/>
      <point x="600" y="1472"/>
      <point x="600" y="1306" type="curve" smooth="yes"/>
      <point x="600" y="1223"/>
      <point x="560" y="1161"/>
      <point x="481" y="1120" type="curve"/>
      <point x="565" y="1084"/>
      <point x="624" y="1016"/>
      <point x="624" y="905" type="curve" smooth="yes"/>
      <point x="624" y="731"/>
      <point x="467" y="636"/>
      <point x="292" y="636" type="curve" smooth="yes"/>
      <point x="174" y="636"/>
      <point x="85" y="679"/>
      <point x="20" y="741" type="curve"/>
    </contour>
    <contour>
      <point x="457" y="-1" type="line"/>
      <point x="290" y="-1" type="line"/>
      <point x="1293" y="1558" type="line"/>
      <point x="1457" y="1558" type="line"/>
    </contour>
    <contour>
      <point x="1383" y="248" type="line"/>
      <point x="965" y="248" type="line"/>
      <point x="965" y="346" type="line"/>
      <point x="1368" y="909" type="line"/>
      <point x="1518" y="909" type="line"/>
      <point x="1518" y="363" type="line"/>
      <point x="1639" y="363" type="line"/>
      <point x="1650" y="248" type="line"/>
      <point x="1516" y="248" type="line"/>
      <point x="1516" y="-1" type="line"/>
      <point x="1383" y="44" type="line"/>
    </contour>
  </outline>
</glyph>
<glyph name="AE" format="1">
  <advance width="1229"/>
  <unicode hex="00C6"/>
  <outline>
    <contour>
      <point x="615" y="1491" type="move" name="top"/>
    </contour>
    <contour>
      <point x="692" y="591" type="line"/>
      <point x="692" y="1360" type="line"/>
      <point x="441" y="591" type="line"/>
    </contour>
    <contour>
      <point x="612" y="1572" type="line"/>
      <point x="1165" y="1572" type="line"/>
      <point x="1153" y="1411" type="line"/>
      <point x="871" y="1411" type="line"/>
      <point x="871" y="881" type="line"/>
      <point x="1179" y="881" type="line"/>
      <point x="1166" y="721" type="line"/>
      <point x="871" y="721" type="line"/>
      <point x="871" y="151" type="line"/>
      <point x="1194" y="151" type="line"/>
      <point x="1182" y="0" type="line"/>
      <point x="692" y="0" type="line"/>
      <point x="692" y="431" type="line"/>
      <point x="380" y="431" type="line"/>
      <point x="235" y="0" type="line"/>
      <point x="27" y="0" type="line"/>
    </contour>
  </outline>
</glyph>
<glyph name="Eth" format="1">
  <advance width="1229"/>
  <unicode hex="00D0"/>
  <outline>
    <component base="D"/>
    <contour>
      <point x="633" y="714" type="line"/>
      <point x="0" y="714" type="line"/>
      <point x="0" y="863" type="line"/>
      <point x="633" y="863" type="line"/>
    </contour>
  </outline>
</glyph>
<glyph name="Oslash" format="1">
  <advance width="1229"/>
  <unicode hex="00D8"/>
  <outline>
    <contour>
      <point x="615" y="1491" type="move" name="top"/>
    </contour>
    <contour>
      <point x="614" y="1356" type="curve" smooth="yes"/>
      <point x="417" y="1356"/>
      <point x="319" y="1091"/>
      <point x="319" y="746" type="curve" smooth="yes"/>
      <point x="319" y="597.778"/>
      <point x="337.273" y="464.323"/>
      <point x="373.662" y="360.305" type="curve"/>
      <point x="769.544" y="1284.19" type="line"/>
      <point x="727.318" y="1330.19"/>
      <point x="675.48" y="1356"/>
    </contour>
    <contour>
      <point x="281" y="-222" type="line"/>
      <point x="146" y="-171" type="line"/>
      <point x="281.604" y="145.465" type="line"/>
      <point x="173.625" y="289.752"/>
      <point x="123" y="510.383"/>
      <point x="123" y="747" type="curve" smooth="yes"/>
      <point x="123" y="1124"/>
      <point x="242" y="1516"/>
      <point x="614" y="1516" type="curve" smooth="yes"/>
      <point x="704.142" y="1516"/>
      <point x="779.428" y="1492.98"/>
      <point x="841.765" y="1452.74" type="curve"/>
      <point x="955" y="1717" type="line"/>
      <point x="1095" y="1675" type="line"/>
      <point x="953.698" y="1345.7" type="line"/>
      <point x="1063.7" y="1196.41"/>
      <point x="1105" y="969.1"/>
      <point x="1105" y="747" type="curve" smooth="yes"/>
      <point x="1105" y="337"/>
      <point x="953" y="-25"/>
      <point x="614" y="-25" type="curve" smooth="yes"/>
      <point x="528.639" y="-25"/>
      <point x="455.134" y="-2.04754"/>
      <point x="392.928" y="38.8442" type="curve"/>
    </contour>
    <contour>
      <point x="463.382" y="203.034" type="line"/>
      <point x="504.756" y="160.029"/>
      <point x="554.98" y="136"/>
      <point x="614" y="136" type="curve" smooth="yes"/>
      <point x="810" y="136"/>
      <point x="909" y="401"/>
      <point x="909" y="746" type="curve" smooth="yes"/>
      <point x="909" y="889.806"/>
      <point x="891.973" y="1019.71"/>
      <point x="857.846" y="1122.32" type="curve"/>
    </contour>
  </outline>
</glyph>
<glyph name="Thorn" format="1">
  <advance width="1229"/>
  <unicode hex="00DE"/>
  <outline>
    <contour>
      <point x="545" y="523" type="line" smooth="yes"/>
      <point x="782" y="523"/>
      <point x="915" y="599"/>
      <point x="915" y="836" type="curve" smooth="yes"/>
      <point x="915" y="1096"/>
      <point x="751" y="1144"/>
      <point x="493" y="1144" type="curve" smooth="yes"/>
      <point x="366" y="1144" type="line"/>
      <point x="366" y="523" type="line"/>
    </contour>
    <contour>
      <point x="1119" y="831" type="curve" smooth="yes"/>
      <point x="1119" y="384"/>
      <point x="754" y="361"/>
      <point x="366" y="361" type="curve"/>
      <point x="366" y="0" type="line"/>
      <point x="176" y="0" type="line"/>
      <point x="176" y="1581" type="line"/>
      <point x="366" y="1581" type="line"/>
      <point x="366" y="1304" type="line"/>
      <point x="772" y="1304"/>
      <point x="1119" y="1298"/>
    </contour>
  </outline>
</glyph>
<glyph name="Thorn" format="1">
  <advance width="1229"/>
  <unicode hex="00DE"/>
  <outline>
    <contour>
      <point x="655" y="643" type="line" smooth="yes"/>
      <point x="892" y="643"/>
      <point x="1075" y="719"/>
      <point x="1075" y="956" type="curve" smooth="yes"/>
      <point x="1075" y="1216"/>
      <point x="861" y="1264"/>
      <point x="603" y="1264" type="curve" smooth="yes"/>
      <point x="366" y="1264" type="line"/>
      <point x="366" y="643" type="line"/>
    </contour>
    <contour>
      <point x="1279" y="951" type="curve" smooth="yes"/>
      <point x="1279" y="504"/>
      <point x="814" y="481"/>
      <point x="366" y="481" type="curve"/>
      <point x="366" y="0" type="line"/>
      <point x="176" y="0" type="line"/>
      <point x="176" y="1581" type="line"/>
      <point x="366" y="1581" type="line"/>
      <point x="366" y="1424" type="line"/>
      <point x="832" y="1424"/>
      <point x="1279" y="1418"/>
    </contour>
  </outline>
</glyph>
<glyph name="ae" format="1">
  <advance width="1229"/>
  <unicode hex="00E6"/>
  <outline>
    <contour>
      <point x="615" y="1097" type="move" name="top"/>
    </contour>
    <contour>
      <point x="1026" y="653" type="line"/>
      <point x="1017" y="821"/>
      <point x="983" y="977"/>
      <point x="880" y="977" type="curve" smooth="yes"/>
      <point x="769" y="977"/>
      <point x="718" y="824"/>
      <point x="709" y="653" type="curve"/>
    </contour>
    <contour>
      <point x="352" y="122" type="curve" smooth="yes"/>
      <point x="452" y="122"/>
      <point x="518" y="169"/>
      <point x="593" y="210" type="curve"/>
      <point x="567" y="280"/>
      <point x="551" y="362"/>
      <point x="543" y="452" type="curve"/>
      <point x="499" y="452" type="line" smooth="yes"/>
      <point x="387" y="452"/>
      <point x="232" y="445"/>
      <point x="232" y="297" type="curve" smooth="yes"/>
      <point x="232" y="194"/>
      <point x="267" y="122"/>
    </contour>
    <contour>
      <point x="1148" y="98" type="line"/>
      <point x="1077" y="22"/>
      <point x="992" y="-25"/>
      <point x="865" y="-25" type="curve" smooth="yes"/>
      <point x="777" y="-25"/>
      <point x="706" y="19"/>
      <point x="653" y="94" type="curve"/>
      <point x="557" y="38"/>
      <point x="468" y="-25"/>
      <point x="343" y="-25" type="curve" smooth="yes"/>
      <point x="193" y="-25"/>
      <point x="55" y="92"/>
      <point x="55" y="280" type="curve" smooth="yes"/>
      <point x="55" y="562"/>
      <point x="272" y="594"/>
      <point x="522" y="594" type="curve" smooth="yes"/>
      <point x="537" y="594" type="line"/>
      <point x="537" y="786" type="line" smooth="yes"/>
      <point x="537" y="912"/>
      <point x="483" y="969"/>
      <point x="369" y="969" type="curve" smooth="yes"/>
      <point x="286" y="969"/>
      <point x="205" y="945"/>
      <point x="145" y="894" type="curve"/>
      <point x="101" y="1053" type="line"/>
      <point x="177" y="1105"/>
      <point x="278" y="1130"/>
      <point x="378" y="1130" type="curve" smooth="yes"/>
      <point x="497" y="1130"/>
      <point x="595" y="1088"/>
      <point x="644" y="988" type="curve"/>
      <point x="704" y="1079"/>
      <point x="786" y="1130"/>
      <point x="880" y="1130" type="curve" smooth="yes"/>
      <point x="1070" y="1130"/>
      <point x="1170" y="880"/>
      <point x="1170" y="581" type="curve"/>
      <point x="1168" y="520" type="line"/>
      <point x="703" y="520" type="line"/>
      <point x="711" y="302"/>
      <point x="765" y="122"/>
      <point x="878" y="122" type="curve" smooth="yes"/>
      <point x="963" y="122"/>
      <point x="1022" y="171"/>
      <point x="1068" y="222" type="curve"/>
    </contour>
  </outline>
</glyph>
<glyph name="eth" format="1">
  <advance width="1229"/>
  <unicode hex="00F0"/>
  <outline>
    <contour>
      <point x="673" y="129" type="curve" smooth="yes"/>
      <point x="931" y="129"/>
      <point x="1040" y="327"/>
      <point x="1040" y="583" type="curve" smooth="yes"/>
      <point x="1040" y="737"/>
      <point x="812" y="822"/>
      <point x="662" y="822" type="curve" smooth="yes"/>
      <point x="451" y="822"/>
      <point x="331" y="689"/>
      <point x="331" y="480" type="curve" smooth="yes"/>
      <point x="331" y="274"/>
      <point x="465" y="129"/>
    </contour>
    <contour>
      <point x="1247" y="743" type="curve" smooth="yes"/>
      <point x="1247" y="321"/>
      <point x="1105" y="-25"/>
      <point x="681" y="-25" type="curve" smooth="yes"/>
      <point x="341" y="-25"/>
      <point x="135" y="201"/>
      <point x="135" y="484" type="curve"/>
      <point x="136" y="485" type="line"/>
      <point x="136" y="787"/>
      <point x="338" y="975"/>
      <point x="641" y="975" type="curve" smooth="yes"/>
      <point x="837" y="975"/>
      <point x="976" y="908"/>
      <point x="1054" y="786" type="curve"/>
      <point x="1054" y="909"/>
      <point x="1043" y="1015"/>
      <point x="1014" y="1115" type="curve"/>
      <point x="724" y="1115" type="line"/>
      <point x="724" y="1264" type="line"/>
      <point x="951" y="1264" type="line"/>
      <point x="887" y="1379"/>
      <point x="789" y="1464"/>
      <point x="673" y="1527" type="curve"/>
      <point x="760" y="1619" type="line"/>
      <point x="932" y="1554"/>
      <point x="1059" y="1422"/>
      <point x="1137" y="1264" type="curve"/>
      <point x="1355" y="1264" type="line"/>
      <point x="1355" y="1115" type="line"/>
      <point x="1193" y="1115" type="line"/>
      <point x="1229" y="1004"/>
      <point x="1247" y="883"/>
    </contour>
  </outline>
</glyph>
<glyph name="divide" format="1">
  <advance width="1229"/>
  <unicode hex="00F7"/>
  <outline>
    <contour>
      <point x="619" y="948" type="line"/>
      <point x="619" y="1175" type="line"/>
      <point x="858" y="1175" type="line"/>
      <point x="858" y="948" type="line"/>
    </contour>
    <contour>
      <point x="619" y="22" type="line"/>
      <point x="619" y="251" type="line"/>
      <point x="858" y="251" type="line"/>
      <point x="858" y="22" type="line"/>
    </contour>
    <contour>
      <point x="152" y="677" type="line"/>
      <point x="1311" y="677" type="line"/>
      <point x="1311" y="526" type="line"/>
      <point x="152" y="526" type="line"/>
    </contour>
  </outline>
</glyph>
<glyph name="oslash" format="1">
  <advance width="1229"/>
  <unicode hex="00F8"/>
  <outline>
    <contour>
      <point x="615" y="1097" type="move" name="top"/>
    </contour>
    <contour>
      <point x="322" y="-283" type="line"/>
      <point x="210" y="-242" type="line"/>
      <point x="338.347" y="52.2935" type="line"/>
      <point x="192.348" y="151.794"/>
      <point x="118" y="337.513"/>
      <point x="118" y="551" type="curve" smooth="yes"/>
      <point x="118" y="897"/>
      <point x="319" y="1130"/>
      <point x="615" y="1130" type="curve" smooth="yes"/>
      <point x="681.956" y="1130"/>
      <point x="742.161" y="1119.77"/>
      <point x="795.59" y="1100.73" type="curve"/>
      <point x="920" y="1386" type="line"/>
      <point x="1032" y="1351" type="line"/>
      <point x="899.852" y="1046.87" type="line"/>
      <point x="1039.68" y="948.027"/>
      <point x="1110" y="769.536"/>
      <point x="1110" y="558" type="curve" smooth="yes"/>
      <point x="1110" y="210"/>
      <point x="905" y="-25"/>
      <point x="607" y="-25" type="curve" smooth="yes"/>
      <point x="547.644" y="-25"/>
      <point x="493.589" y="-16.3212"/>
      <point x="444.893" y="-0.173657" type="curve"/>
    </contour>
    <contour>
      <point x="508.652" y="146.563" type="line"/>
      <point x="539.448" y="135.219"/>
      <point x="574.132" y="129"/>
      <point x="613" y="129" type="curve" smooth="yes"/>
      <point x="848" y="129"/>
      <point x="927" y="342"/>
      <point x="927" y="553" type="curve" smooth="yes"/>
      <point x="927" y="676.895"/>
      <point x="899.85" y="802.183"/>
      <point x="829.122" y="884.095" type="curve"/>
    </contour>
    <contour>
      <point x="408.579" y="213.334" type="curve"/>
      <point x="731.987" y="954.894" type="line"/>
      <point x="697.767" y="969.118"/>
      <point x="658.294" y="977"/>
      <point x="613" y="977" type="curve" smooth="yes"/>
      <point x="385" y="977"/>
      <point x="301" y="757"/>
      <point x="301" y="550" type="curve" smooth="yes"/>
      <point x="301" y="423.624"/>
      <point x="332.309" y="294.639"/>
    </contour>
  </outline>
</glyph>
<glyph name="dcroat" format="1">
  <advance width="1229"/>
  <unicode hex="0111"/>
  <outline>
    <component base="d"/>
    <contour>
      <point x="594" y="1284" type="line"/>
      <point x="594" y="1430" type="line"/>
      <point x="1228" y="1430" type="line"/>
      <point x="1228" y="1284" type="line"/>
    </contour>
  </outline>
</glyph>
<glyph name="Edotaccent" format="1">
  <advance width="1229"/>
  <unicode hex="0116"/>
  <outline>
    <contour>
      <point x="574" y="1815" type="line"/>
      <point x="751" y="1815" type="line"/>
      <point x="751" y="1638" type="line"/>
      <point x="574" y="1638" type="line"/>
    </contour>
    <component base="E"/>
  </outline>
</glyph>
<glyph name="edotaccent" format="1">
  <advance width="1229"/>
  <unicode hex="0117"/>
  <outline>
    <contour>
      <point x="534" y="1430" type="line"/>
      <point x="711" y="1430" type="line"/>
      <point x="711" y="1253" type="line"/>
      <point x="534" y="1253" type="line"/>
    </contour>
    <component base="e"/>
  </outline>
</glyph>
<glyph name="gdotaccent" format="1">
  <advance width="1229"/>
  <unicode hex="0121"/>
  <outline>
    <contour>
      <point x="514" y="1429" type="line"/>
      <point x="691" y="1429" type="line"/>
      <point x="691" y="1252" type="line"/>
      <point x="514" y="1252" type="line"/>
    </contour>
    <component base="g"/>
  </outline>
</glyph>
<glyph name="gcommaaccent" format="1">
  <advance width="1229"/>
  <unicode hex="0123"/>
  <outline>
    <contour>
      <point x="429" y="1249" type="line"/>
      <point x="610" y="1752" type="line"/>
      <point x="756" y="1752" type="line"/>
      <point x="637" y="1249" type="line"/>
    </contour>
    <contour>
      <point x="891" y="210" type="line"/>
      <point x="849" y="103"/>
      <point x="722" y="0"/>
      <point x="568" y="0" type="curve" smooth="yes"/>
      <point x="261" y="0"/>
      <point x="111" y="253"/>
      <point x="111" y="556" type="curve" smooth="yes"/>
      <point x="111" y="880"/>
      <point x="259" y="1130"/>
      <point x="572" y="1130" type="curve" smooth="yes"/>
      <point x="717" y="1130"/>
      <point x="822" y="1061"/>
      <point x="891" y="948" type="curve"/>
      <point x="897" y="1097" type="line"/>
      <point x="1082" y="1097" type="line"/>
      <point x="1074" y="879"/>
      <point x="1073" y="670"/>
      <point x="1073" y="446" type="curve" smooth="yes"/>
      <point x="1073" y="152" type="line" smooth="yes"/>
      <point x="1073" y="-317"/>
      <point x="833" y="-441"/>
      <point x="310" y="-441" type="curve"/>
      <point x="310" y="-274" type="line"/>
      <point x="317.192" y="-274" type="line" smooth="yes"/>
      <point x="600.72" y="-274"/>
      <point x="820.46" y="-273.017"/>
      <point x="875" y="-38" type="curve" smooth="yes"/>
      <point x="886" y="9"/>
      <point x="891" y="68"/>
      <point x="891" y="137" type="curve" smooth="yes"/>
    </contour>
    <contour>
      <point x="592" y="969" type="curve" smooth="yes"/>
      <point x="357" y="969"/>
      <point x="294" y="777"/>
      <point x="294" y="550" type="curve" smooth="yes"/>
      <point x="294" y="360"/>
      <point x="373" y="162"/>
      <point x="584" y="162" type="curve" smooth="yes"/>
      <point x="818" y="162"/>
      <point x="891" y="361"/>
      <point x="891" y="556" type="curve" smooth="yes"/>
      <point x="891" y="773"/>
      <point x="828" y="969"/>
    </contour>
  </outline>
</glyph>
<glyph name="Hbar" format="1">
  <advance width="1229"/>
  <unicode hex="0126"/>
  <outline>
    <component base="H"/>
    <contour>
      <point x="11" y="1194" type="line"/>
      <point x="11" y="1320" type="line"/>
      <point x="1216" y="1320" type="line"/>
      <point x="1216" y="1194" type="line"/>
    </contour>
  </outline>
</glyph>
<glyph name="hbar" format="1">
  <advance width="1229"/>
  <unicode hex="0127"/>
  <outline>
    <component base="h"/>
    <contour>
      <point x="4" y="1284" type="line"/>
      <point x="4" y="1430" type="line"/>
      <point x="638" y="1430" type="line"/>
      <point x="638" y="1284" type="line"/>
    </contour>
  </outline>
</glyph>
<glyph name="dotlessi" format="1">
  <advance width="1229"/>
  <unicode hex="0131"/>
  <outline>
    <contour>
      <point x="1106" y="10" type="move" name="ogonek"/>
    </contour>
    <contour>
      <point x="615" y="1097" type="move" name="top"/>
    </contour>
    <contour>
      <point x="266" y="953" type="line"/>
      <point x="266" y="1097" type="line"/>
      <point x="788" y="1097" type="line"/>
      <point x="788" y="144" type="line"/>
      <point x="1185" y="144" type="line"/>
      <point x="1185" y="0" type="line"/>
      <point x="197" y="0" type="line"/>
      <point x="197" y="144" type="line"/>
      <point x="606" y="144" type="line"/>
      <point x="606" y="953" type="line"/>
    </contour>
  </outline>
</glyph>
<glyph name="IJ" format="1">
  <advance width="1229"/>
  <unicode hex="0132"/>
  <outline>
    <contour>
      <point x="55" y="1345" type="line"/>
      <point x="55" y="1491" type="line"/>
      <point x="576" y="1491" type="line"/>
      <point x="576" y="1345" type="line"/>
      <point x="405" y="1345" type="line"/>
      <point x="405" y="146" type="line"/>
      <point x="576" y="146" type="line"/>
      <point x="576" y="0" type="line"/>
      <point x="55" y="0" type="line"/>
      <point x="55" y="146" type="line"/>
      <point x="218" y="146" type="line"/>
      <point x="218" y="1345" type="line"/>
    </contour>
    <contour>
      <point x="660" y="0" type="curve"/>
      <point x="659" y="145" type="line"/>
      <point x="720.638" y="135.568"/>
      <point x="779.721" y="120.8"/>
      <point x="830.341" y="120.8" type="curve" smooth="yes"/>
      <point x="922.783" y="120.8"/>
      <point x="987" y="170.052"/>
      <point x="987" y="391" type="curve" smooth="yes"/>
      <point x="987" y="1345" type="line"/>
      <point x="679" y="1345" type="line"/>
      <point x="679" y="1491" type="line"/>
      <point x="1174" y="1491" type="line"/>
      <point x="1174" y="443" type="line" smooth="yes"/>
      <point x="1174" y="71.9229"/>
      <point x="1061.6" y="-15.3623"/>
      <point x="851.928" y="-15.3623" type="curve" smooth="yes"/>
      <point x="795.017" y="-15.3623"/>
      <point x="730.94" y="-8.93164"/>
    </contour>
  </outline>
</glyph>
<glyph name="Jcircumflex" format="1">
  <advance width="1229"/>
  <unicode hex="0134"/>
  <outline>
    <contour>
      <point x="682" y="2009" type="line"/>
      <point x="941" y="1660" type="line"/>
      <point x="798" y="1660" type="line"/>
      <point x="594" y="1895" type="line"/>
      <point x="392" y="1660" type="line"/>
      <point x="256" y="1660" type="line"/>
      <point x="515" y="2009" type="line"/>
    </contour>
    <contour>
      <point x="137" y="134" type="line"/>
      <point x="350" y="134" type="line" smooth="yes"/>
      <point x="525" y="134"/>
      <point x="574" y="212"/>
      <point x="574" y="391" type="curve" smooth="yes"/>
      <point x="574" y="1328" type="line"/>
      <point x="229" y="1328" type="line"/>
      <point x="229" y="1491" type="line"/>
      <point x="1060" y="1491" type="line"/>
      <point x="1060" y="1328" type="line"/>
      <point x="761" y="1328" type="line"/>
      <point x="761" y="443" type="line" smooth="yes"/>
      <point x="761" y="121"/>
      <point x="673" y="-26"/>
      <point x="371" y="-26" type="curve" smooth="yes"/>
      <point x="137" y="-26" type="line"/>
    </contour>
  </outline>
</glyph>
<glyph name="jcircumflex" format="1">
  <advance width="1229"/>
  <unicode hex="0135"/>
  <outline>
    <contour>
      <point x="553" y="1615" type="line"/>
      <point x="812" y="1266" type="line"/>
      <point x="669" y="1266" type="line"/>
      <point x="465" y="1501" type="line"/>
      <point x="263" y="1266" type="line"/>
      <point x="127" y="1266" type="line"/>
      <point x="386" y="1615" type="line"/>
    </contour>
    <contour>
      <point x="410" y="-155" type="line" smooth="yes"/>
      <point x="596" y="-155"/>
      <point x="621" y="-120"/>
      <point x="621" y="127" type="curve" smooth="yes"/>
      <point x="621" y="953" type="line"/>
      <point x="136" y="953" type="line"/>
      <point x="136" y="1097" type="line"/>
      <point x="803" y="1097" type="line"/>
      <point x="803" y="183" type="line" smooth="yes"/>
      <point x="803" y="-143"/>
      <point x="786" y="-313"/>
      <point x="411" y="-313" type="curve" smooth="yes"/>
      <point x="135" y="-313" type="line"/>
      <point x="135" y="-155" type="line"/>
    </contour>
  </outline>
</glyph>
<glyph name="Kcommaaccent" format="1">
  <advance width="1229"/>
  <unicode hex="0136"/>
  <outline>
    <contour>
      <point x="891" y="-102" type="line"/>
      <point x="710" y="-604" type="line"/>
      <point x="565" y="-604" type="line"/>
      <point x="683" y="-102" type="line"/>
    </contour>
    <component base="K"/>
  </outline>
</glyph>
<glyph name="Lcommaaccent" format="1">
  <advance width="1229"/>
  <unicode hex="013B"/>
  <outline>
    <contour>
      <point x="844" y="-102" type="line"/>
      <point x="663" y="-604" type="line"/>
      <point x="518" y="-604" type="line"/>
      <point x="636" y="-102" type="line"/>
    </contour>
    <component base="L"/>
  </outline>
</glyph>
<glyph name="ldot" format="1">
  <advance width="1229"/>
  <unicode hex="0140"/>
  <outline>
    <contour>
      <point x="1716" y="557" type="line"/>
      <point x="1716" y="785" type="line"/>
      <point x="1957" y="785" type="line"/>
      <point x="1957" y="557" type="line"/>
    </contour>
    <contour>
      <point x="195" y="1433" type="line"/>
      <point x="195" y="1585" type="line"/>
      <point x="788" y="1585" type="line"/>
      <point x="788" y="144" type="line"/>
      <point x="1259" y="144" type="line"/>
      <point x="1259" y="0" type="line"/>
      <point x="125" y="0" type="line"/>
      <point x="125" y="144" type="line"/>
      <point x="606" y="144" type="line"/>
      <point x="606" y="1433" type="line"/>
    </contour>
  </outline>
</glyph>
<glyph name="Lslash" format="1">
  <advance width="1229"/>
  <unicode hex="0141"/>
  <outline>
    <contour>
      <point x="420" y="163" type="line"/>
      <point x="1129" y="163" type="line"/>
      <point x="1129" y="0" type="line"/>
      <point x="233" y="0" type="line"/>
      <point x="233" y="639.425" type="line"/>
      <point x="76" y="559" type="line"/>
      <point x="76" y="708" type="line"/>
      <point x="233" y="788.425" type="line"/>
      <point x="233" y="1491" type="line"/>
      <point x="420" y="1491" type="line"/>
      <point x="420" y="879.756" type="line"/>
      <point x="614" y="978" type="line"/>
      <point x="614" y="829" type="line"/>
      <point x="420" y="730.756" type="line"/>
    </contour>
  </outline>
</glyph>
<glyph name="Lslash" format="1">
  <advance width="1229"/>
  <unicode hex="0141"/>
  <outline>
    <contour>
      <point x="420" y="163" type="line"/>
      <point x="1129" y="163" type="line"/>
      <point x="1129" y="0" type="line"/>
      <point x="233" y="0" type="line"/>
      <point x="233" y="639.425" type="line"/>
      <point x="11" y="531" type="line"/>
      <point x="11" y="680" type="line"/>
      <point x="233" y="788.425" type="line"/>
      <point x="233" y="1491" type="line"/>
      <point x="420" y="1491" type="line"/>
      <point x="420" y="879.756" type="line"/>
      <point x="830" y="1080" type="line"/>
      <point x="830" y="931" type="line"/>
      <point x="420" y="730.756" type="line"/>
    </contour>
  </outline>
</glyph>
<glyph name="lslash" format="1">
  <advance width="1229"/>
  <unicode hex="0142"/>
  <outline>
    <contour>
      <point x="195" y="1433" type="line"/>
      <point x="195" y="1585" type="line"/>
      <point x="788" y="1585" type="line"/>
      <point x="788" y="915.897" type="line"/>
      <point x="1014" y="1043" type="line"/>
      <point x="1014" y="894" type="line"/>
      <point x="788" y="766.897" type="line"/>
      <point x="788" y="144" type="line"/>
      <point x="1259" y="144" type="line"/>
      <point x="1259" y="0" type="line"/>
      <point x="125" y="0" type="line"/>
      <point x="125" y="144" type="line"/>
      <point x="606" y="144" type="line"/>
      <point x="606" y="678.009" type="line"/>
      <point x="374" y="550" type="line"/>
      <point x="374" y="699" type="line"/>
      <point x="606" y="827.009" type="line"/>
      <point x="606" y="1433" type="line"/>
    </contour>
  </outline>
</glyph>
<glyph name="Ncommaaccent" format="1">
  <advance width="1229"/>
  <unicode hex="0145"/>
  <outline>
    <contour>
      <point x="777" y="-102" type="line"/>
      <point x="596" y="-604" type="line"/>
      <point x="451" y="-604" type="line"/>
      <point x="569" y="-102" type="line"/>
    </contour>
    <component base="N"/>
  </outline>
</glyph>
<glyph name="ncommaaccent" format="1">
  <advance width="1229"/>
  <unicode hex="0146"/>
  <outline>
    <contour>
      <point x="799" y="-102" type="line"/>
      <point x="618" y="-604" type="line"/>
      <point x="473" y="-604" type="line"/>
      <point x="591" y="-102" type="line"/>
    </contour>
    <component base="n"/>
  </outline>
</glyph>
<glyph name="Eng" format="1">
  <advance width="1229"/>
  <unicode hex="014A"/>
  <outline>
    <contour>
      <point x="715" y="1518" type="curve" smooth="yes"/>
      <point x="947.487" y="1519"/>
      <point x="1099" y="1364"/>
      <point x="1099" y="1009" type="curve" smooth="yes"/>
      <point x="1099" y="183" type="line" smooth="yes"/>
      <point x="1099" y="-130"/>
      <point x="1011" y="-275"/>
      <point x="694" y="-275" type="curve" smooth="yes"/>
      <point x="694" y="-129" type="line" smooth="yes"/>
      <point x="860.169" y="-129"/>
      <point x="912" y="-39"/>
      <point x="912" y="131" type="curve" smooth="yes"/>
      <point x="912" y="1003" type="line" smooth="yes"/>
      <point x="912" y="1240"/>
      <point x="862.953" y="1363"/>
      <point x="660" y="1363" type="curve" smooth="yes"/>
      <point x="462.921" y="1363"/>
      <point x="316" y="1250.96"/>
      <point x="316" y="1011.3" type="curve" smooth="yes"/>
      <point x="316" y="2" type="line"/>
      <point x="129" y="2" type="line"/>
      <point x="129" y="1491" type="line"/>
      <point x="303" y="1491" type="line"/>
      <point x="316" y="1341.68" type="line"/>
      <point x="415.741" y="1461.33"/>
      <point x="547.464" y="1517.31"/>
    </contour>
  </outline>
</glyph>
<glyph name="eng" format="1">
  <advance width="1229"/>
  <unicode hex="014B"/>
  <outline>
    <contour>
      <point x="713" y="1130" type="curve" smooth="yes"/>
      <point x="966" y="1130"/>
      <point x="1054" y="955"/>
      <point x="1054" y="698" type="curve" smooth="yes"/>
      <point x="1053" y="176" type="line" smooth="yes"/>
      <point x="1053" y="-150"/>
      <point x="1035" y="-311"/>
      <point x="660" y="-311" type="curve"/>
      <point x="660" y="-171" type="line"/>
      <point x="846" y="-171"/>
      <point x="871" y="-127"/>
      <point x="871" y="120" type="curve" smooth="yes"/>
      <point x="872" y="676.317" type="line" smooth="yes"/>
      <point x="872" y="842.828"/>
      <point x="866.598" y="990"/>
      <point x="649" y="990" type="curve" smooth="yes"/>
      <point x="511" y="990"/>
      <point x="378" y="898"/>
      <point x="378" y="742" type="curve" smooth="yes"/>
      <point x="378" y="0" type="line"/>
      <point x="196" y="0" type="line"/>
      <point x="196" y="1097" type="line"/>
      <point x="363" y="1097" type="line"/>
      <point x="373" y="978" type="line"/>
      <point x="436" y="1066"/>
      <point x="546" y="1130"/>
    </contour>
  </outline>
</glyph>
<glyph name="OE" format="1">
  <advance width="1229"/>
  <unicode hex="0152"/>
  <outline>
    <contour>
      <point x="615" y="1491" type="move" name="top"/>
    </contour>
    <contour>
      <point x="243" y="791" type="curve" smooth="yes"/>
      <point x="243" y="491"/>
      <point x="303" y="160"/>
      <point x="539" y="160" type="curve" smooth="yes"/>
      <point x="583" y="160" type="line"/>
      <point x="583" y="1389" type="line"/>
      <point x="539" y="1389" type="line" smooth="yes"/>
      <point x="283" y="1389"/>
      <point x="243" y="1056"/>
    </contour>
    <contour>
      <point x="806" y="717" type="line"/>
      <point x="806" y="171" type="line"/>
      <point x="1133" y="171" type="line"/>
      <point x="1116" y="0" type="line"/>
      <point x="539" y="0" type="line" smooth="yes"/>
      <point x="147" y="0"/>
      <point x="20" y="393"/>
      <point x="20" y="789" type="curve" smooth="yes"/>
      <point x="20" y="1210"/>
      <point x="180" y="1568"/>
      <point x="539" y="1568" type="curve" smooth="yes"/>
      <point x="1097" y="1568" type="line"/>
      <point x="1081" y="1397" type="line"/>
      <point x="806" y="1397" type="line"/>
      <point x="806" y="889" type="line"/>
      <point x="1047" y="889" type="line"/>
      <point x="1047" y="717" type="line"/>
    </contour>
  </outline>
</glyph>
<glyph name="oe" format="1">
  <advance width="1229"/>
  <unicode hex="0153"/>
  <outline>
    <contour>
      <point x="615" y="1097" type="move" name="top"/>
    </contour>
    <contour>
      <point x="1026" y="653" type="line"/>
      <point x="1021" y="821"/>
      <point x="986" y="977"/>
      <point x="890" y="977" type="curve" smooth="yes"/>
      <point x="792" y="977"/>
      <point x="747" y="824"/>
      <point x="739" y="653" type="curve"/>
    </contour>
    <contour>
      <point x="1148" y="98" type="line"/>
      <point x="1080" y="22"/>
      <point x="998" y="-25"/>
      <point x="875" y="-25" type="curve" smooth="yes"/>
      <point x="774" y="-25"/>
      <point x="701" y="44"/>
      <point x="654" y="156" type="curve"/>
      <point x="599" y="41"/>
      <point x="517" y="-25"/>
      <point x="419" y="-25" type="curve" smooth="yes"/>
      <point x="192" y="-25"/>
      <point x="70" y="232"/>
      <point x="70" y="551" type="curve" smooth="yes"/>
      <point x="70" y="897"/>
      <point x="215" y="1130"/>
      <point x="427" y="1130" type="curve" smooth="yes"/>
      <point x="531" y="1130"/>
      <point x="609" y="1062"/>
      <point x="661" y="951" type="curve"/>
      <point x="714" y="1065"/>
      <point x="793" y="1130"/>
      <point x="890" y="1130" type="curve" smooth="yes"/>
      <point x="1073" y="1130"/>
      <point x="1170" y="880"/>
      <point x="1170" y="581" type="curve"/>
      <point x="1169" y="520" type="line"/>
      <point x="733" y="520" type="line"/>
      <point x="741" y="302"/>
      <point x="787" y="129"/>
      <point x="888" y="129" type="curve" smooth="yes"/>
      <point x="969" y="129"/>
      <point x="1024" y="171"/>
      <point x="1068" y="222" type="curve"/>
    </contour>
    <contour>
      <point x="253" y="550" type="curve" smooth="yes"/>
      <point x="253" y="343"/>
      <point x="296" y="129"/>
      <point x="425" y="129" type="curve" smooth="yes"/>
      <point x="547" y="129"/>
      <point x="589" y="337"/>
      <point x="589" y="559" type="curve" smooth="yes"/>
      <point x="589" y="769"/>
      <point x="543" y="977"/>
      <point x="425" y="977" type="curve" smooth="yes"/>
      <point x="296" y="977"/>
      <point x="253" y="757"/>
    </contour>
  </outline>
</glyph>
<glyph name="Rcommaaccent" format="1">
  <advance width="1229"/>
  <unicode hex="0156"/>
  <outline>
    <contour>
      <point x="848.5" y="-122" type="line"/>
      <point x="667.5" y="-624" type="line"/>
      <point x="522.5" y="-624" type="line"/>
      <point x="640.5" y="-122" type="line"/>
    </contour>
    <component base="R"/>
  </outline>
</glyph>
<glyph name="tbar" format="1">
  <advance width="1229"/>
  <unicode hex="0167"/>
  <outline>
    <contour>
      <point x="200" y="580" type="line"/>
      <point x="200" y="720" type="line"/>
      <point x="401" y="720" type="line"/>
      <point x="401" y="957" type="line"/>
      <point x="91" y="957" type="line"/>
      <point x="111" y="1097" type="line"/>
      <point x="401" y="1097" type="line"/>
      <point x="401" y="1475" type="line"/>
      <point x="583" y="1529" type="line"/>
      <point x="583" y="1097" type="line"/>
      <point x="1045" y="1097" type="line"/>
      <point x="1045" y="957" type="line"/>
      <point x="583" y="957" type="line"/>
      <point x="583" y="720" type="line"/>
      <point x="879" y="720" type="line"/>
      <point x="879" y="580" type="line"/>
      <point x="583" y="580" type="line"/>
      <point x="583" y="442" type="line" smooth="yes"/>
      <point x="583" y="195"/>
      <point x="632" y="140"/>
      <point x="853" y="140" type="curve" smooth="yes"/>
      <point x="1054" y="140" type="line"/>
      <point x="1044" y="0" type="line"/>
      <point x="860" y="0" type="line" smooth="yes"/>
      <point x="467" y="0"/>
      <point x="401" y="118"/>
      <point x="401" y="488" type="curve" smooth="yes"/>
      <point x="401" y="580" type="line"/>
    </contour>
  </outline>
</glyph>
<glyph name="dotlessj" format="1">
  <advance width="1229"/>
  <unicode hex="0237"/>
  <outline>
    <contour>
      <point x="717" y="1094" type="move" name="top"/>
    </contour>
    <contour>
      <point x="460" y="-220" type="line" smooth="yes"/>
      <point x="646" y="-220"/>
      <point x="671" y="-176"/>
      <point x="671" y="71" type="curve" smooth="yes"/>
      <point x="671" y="957" type="line"/>
      <point x="280" y="957" type="line"/>
      <point x="280" y="1097" type="line"/>
      <point x="853" y="1097" type="line"/>
      <point x="853" y="127" type="line" smooth="yes"/>
      <point x="853" y="-199"/>
      <point x="836" y="-360"/>
      <point x="461" y="-360" type="curve" smooth="yes"/>
      <point x="198" y="-360" type="line"/>
      <point x="198" y="-220" type="line"/>
    </contour>
  </outline>
</glyph>
<glyph name="circumflex" format="1">
  <advance width="1229"/>
  <unicode hex="02C6"/>
  <outline>
    <contour>
      <point x="625.5" y="1097" type="move" name="_top"/>
    </contour>
    <contour>
      <point x="709" y="1615" type="line"/>
      <point x="968" y="1266" type="line"/>
      <point x="825" y="1266" type="line"/>
      <point x="621" y="1501" type="line"/>
      <point x="419" y="1266" type="line"/>
      <point x="283" y="1266" type="line"/>
      <point x="542" y="1615" type="line"/>
    </contour>
  </outline>
</glyph>
<glyph name="caron" format="1">
  <advance width="1229"/>
  <unicode hex="02C7"/>
  <outline>
    <contour>
      <point x="638" y="1097" type="move" name="_top"/>
    </contour>
    <contour>
      <point x="444" y="1614" type="line"/>
      <point x="632" y="1379" type="line"/>
      <point x="822" y="1614" type="line"/>
      <point x="993" y="1614" type="line"/>
      <point x="720" y="1266" type="line"/>
      <point x="555" y="1266" type="line"/>
      <point x="283" y="1614" type="line"/>
    </contour>
  </outline>
</glyph>
<glyph name="breve" format="1">
  <advance width="1229"/>
  <unicode hex="02D8"/>
  <outline>
    <contour>
      <point x="626.5" y="1097" type="move" name="_top"/>
    </contour>
    <contour>
      <point x="411" y="1519" type="line"/>
      <point x="429" y="1422"/>
      <point x="506" y="1378"/>
      <point x="620" y="1378" type="curve" smooth="yes"/>
      <point x="734" y="1378"/>
      <point x="819" y="1428"/>
      <point x="843" y="1519" type="curve"/>
      <point x="940" y="1519" type="line"/>
      <point x="928" y="1349"/>
      <point x="812" y="1263"/>
      <point x="629" y="1263" type="curve" smooth="yes"/>
      <point x="441" y="1263"/>
      <point x="329" y="1345"/>
      <point x="313" y="1519" type="curve"/>
    </contour>
  </outline>
</glyph>
<glyph name="dotaccent" format="1">
  <advance width="1229"/>
  <unicode hex="02D9"/>
  <outline>
    <contour>
      <point x="596.5" y="1097" type="move" name="_top"/>
    </contour>
    <contour>
      <point x="508" y="1529" type="line"/>
      <point x="685" y="1529" type="line"/>
      <point x="685" y="1352" type="line"/>
      <point x="508" y="1352" type="line"/>
    </contour>
  </outline>
</glyph>
<glyph name="ring" format="1">
  <advance width="1229"/>
  <unicode hex="02DA"/>
  <outline>
    <contour>
      <point x="623.5" y="1100" type="move" name="_top"/>
    </contour>
    <contour>
      <point x="852" y="1455" type="curve" smooth="yes"/>
      <point x="852" y="1333"/>
      <point x="744" y="1247"/>
      <point x="622" y="1247" type="curve" smooth="yes"/>
      <point x="495" y="1247"/>
      <point x="387" y="1329"/>
      <point x="387" y="1455" type="curve" smooth="yes"/>
      <point x="387" y="1581"/>
      <point x="494" y="1661"/>
      <point x="621" y="1661" type="curve" smooth="yes"/>
      <point x="745" y="1661"/>
      <point x="852" y="1579"/>
    </contour>
    <contour>
      <point x="632" y="1568" type="curve" smooth="yes"/>
      <point x="557" y="1568"/>
      <point x="497" y="1529"/>
      <point x="497" y="1454" type="curve" smooth="yes"/>
      <point x="497" y="1393"/>
      <point x="541" y="1340"/>
      <point x="603" y="1340" type="curve" smooth="yes"/>
      <point x="679" y="1340"/>
      <point x="743" y="1379"/>
      <point x="743" y="1456" type="curve" smooth="yes"/>
      <point x="743" y="1516"/>
      <point x="693" y="1568"/>
    </contour>
  </outline>
</glyph>
<glyph name="ogonek" format="1">
  <advance width="1229"/>
  <unicode hex="02DB"/>
  <outline>
    <contour>
      <point x="711" y="0" type="move" name="_ogonek"/>
    </contour>
    <contour>
      <point x="414" y="-244" type="curve" smooth="yes"/>
      <point x="414" y="-104"/>
      <point x="555" y="-33"/>
      <point x="653" y="13" type="curve"/>
      <point x="795" y="0" type="line"/>
      <point x="708" y="-50"/>
      <point x="569" y="-120"/>
      <point x="569" y="-212" type="curve" smooth="yes"/>
      <point x="569" y="-280"/>
      <point x="631" y="-306"/>
      <point x="699" y="-306" type="curve" smooth="yes"/>
      <point x="756" y="-306"/>
      <point x="806" y="-288"/>
      <point x="850" y="-271" type="curve"/>
      <point x="850" y="-392" type="line"/>
      <point x="799" y="-413"/>
      <point x="744" y="-424"/>
      <point x="687" y="-424" type="curve" smooth="yes"/>
      <point x="546" y="-424"/>
      <point x="414" y="-385"/>
    </contour>
  </outline>
</glyph>
<glyph name="tilde" format="1">
  <advance width="1229"/>
  <unicode hex="02DC"/>
  <outline>
    <contour>
      <point x="645.5" y="1097" type="move" name="_top"/>
    </contour>
    <contour>
      <point x="1037" y="1536" type="line"/>
      <point x="1030" y="1397"/>
      <point x="961" y="1289"/>
      <point x="814" y="1289" type="curve" smooth="yes"/>
      <point x="672" y="1289"/>
      <point x="622" y="1405"/>
      <point x="483" y="1405" type="curve" smooth="yes"/>
      <point x="420" y="1405"/>
      <point x="393" y="1362"/>
      <point x="391" y="1303" type="curve"/>
      <point x="254" y="1303" type="line"/>
      <point x="257" y="1451"/>
      <point x="336" y="1548"/>
      <point x="488" y="1548" type="curve" smooth="yes"/>
      <point x="633" y="1548"/>
      <point x="677" y="1431"/>
      <point x="818" y="1431" type="curve" smooth="yes"/>
      <point x="876" y="1431"/>
      <point x="895" y="1482"/>
      <point x="899" y="1536" type="curve"/>
    </contour>
  </outline>
</glyph>
<glyph name="hungarumlaut" format="1">
  <advance width="1229"/>
  <unicode hex="02DD"/>
  <outline>
    <contour>
      <point x="454.5" y="1097" type="move" name="_top"/>
    </contour>
    <contour>
      <point x="246" y="1270" type="line"/>
      <point x="495" y="1607" type="line"/>
      <point x="685" y="1607" type="line"/>
      <point x="374" y="1270" type="line"/>
    </contour>
    <contour>
      <point x="539" y="1270" type="line"/>
      <point x="793" y="1607" type="line"/>
      <point x="983" y="1607" type="line"/>
      <point x="670" y="1270" type="line"/>
    </contour>
  </outline>
</glyph>
<glyph name="emdash" format="1">
  <advance width="1229"/>
  <unicode hex="2014"/>
  <outline>
    <contour>
      <point x="-6" y="531" type="line"/>
      <point x="-6" y="680" type="line"/>
      <point x="1235" y="680" type="line"/>
      <point x="1235" y="531" type="line"/>
    </contour>
  </outline>
</glyph>
<glyph name="quoteright" format="1">
  <advance width="1229"/>
  <unicode hex="2019"/>
  <outline>
    <contour>
      <point x="761" y="1588" type="line"/>
      <point x="592" y="1110" type="line"/>
      <point x="446" y="1110" type="line"/>
      <point x="563" y="1588" type="line"/>
    </contour>
  </outline>
</glyph>
<glyph name="quotesinglbase" format="1">
  <advance width="1229"/>
  <unicode hex="201A"/>
  <outline>
    <contour>
      <point x="773" y="218" type="line"/>
      <point x="604" y="-258" type="line"/>
      <point x="457" y="-258" type="line"/>
      <point x="574" y="218" type="line"/>
    </contour>
  </outline>
</glyph>
<glyph name="quotedblleft" format="1">
  <advance width="1229"/>
  <unicode hex="201C"/>
  <outline>
    <contour>
      <point x="233" y="1110" type="line"/>
      <point x="404" y="1588" type="line"/>
      <point x="551" y="1588" type="line"/>
      <point x="435" y="1110" type="line"/>
    </contour>
    <contour>
      <point x="620" y="1110" type="line"/>
      <point x="790" y="1588" type="line"/>
      <point x="938" y="1588" type="line"/>
      <point x="822" y="1110" type="line"/>
    </contour>
  </outline>
</glyph>
<glyph name="quotedblright" format="1">
  <advance width="1229"/>
  <unicode hex="201D"/>
  <outline>
    <contour>
      <point x="913" y="1588" type="line"/>
      <point x="742" y="1110" type="line"/>
      <point x="595" y="1110" type="line"/>
      <point x="712" y="1588" type="line"/>
    </contour>
    <contour>
      <point x="550" y="1588" type="line"/>
      <point x="380" y="1110" type="line"/>
      <point x="233" y="1110" type="line"/>
      <point x="349" y="1588" type="line"/>
    </contour>
  </outline>
</glyph>
<glyph name="dagger" format="1">
  <advance width="1229"/>
  <unicode hex="2020"/>
  <outline>
    <contour>
      <point x="170.5" y="1014" type="line"/>
      <point x="170.5" y="1158" type="line"/>
      <point x="530.5" y="1158" type="line"/>
      <point x="530.5" y="1575" type="line"/>
      <point x="698.5" y="1575" type="line"/>
      <point x="698.5" y="1158" type="line"/>
      <point x="1058.5" y="1158" type="line"/>
      <point x="1058.5" y="1014" type="line"/>
      <point x="698.5" y="1014" type="line"/>
      <point x="698.5" y="0" type="line"/>
      <point x="530.5" y="0" type="line"/>
      <point x="530.5" y="1014" type="line"/>
    </contour>
  </outline>
</glyph>
<glyph name="daggerdbl" format="1">
  <advance width="1229"/>
  <unicode hex="2021"/>
  <outline>
    <contour>
      <point x="236" y="1067" type="line"/>
      <point x="236" y="1211" type="line"/>
      <point x="617" y="1211" type="line"/>
      <point x="589" y="1575" type="line"/>
      <point x="754" y="1575" type="line"/>
      <point x="754" y="1211" type="line"/>
      <point x="1135" y="1211" type="line"/>
      <point x="1135" y="1067" type="line"/>
      <point x="746" y="1067" type="line"/>
      <point x="746" y="610" type="line"/>
      <point x="1127" y="610" type="line"/>
      <point x="1127" y="472" type="line"/>
      <point x="746" y="472" type="line"/>
      <point x="775" y="123" type="line"/>
      <point x="586" y="123" type="line"/>
      <point x="610" y="472" type="line"/>
      <point x="229" y="472" type="line"/>
      <point x="229" y="610" type="line"/>
      <point x="610" y="610" type="line"/>
      <point x="610" y="1067" type="line"/>
    </contour>
  </outline>
</glyph>
<glyph name="guilsinglright" format="1">
  <advance width="1229"/>
  <unicode hex="203A"/>
  <outline>
    <contour>
      <point x="401" y="185" type="line"/>
      <point x="691" y="589" type="line"/>
      <point x="409" y="992" type="line"/>
      <point x="582" y="992" type="line"/>
      <point x="881" y="589" type="line"/>
      <point x="575" y="185" type="line"/>
    </contour>
  </outline>
</glyph>
<glyph name="fraction" format="1">
  <advance width="1229"/>
  <unicode hex="2044"/>
  <outline>
    <contour>
      <point x="873" y="1761" type="line"/>
      <point x="1059" y="1761" type="line"/>
      <point x="350" y="-48" type="line"/>
      <point x="170" y="-48" type="line"/>
    </contour>
  </outline>
</glyph>
<glyph name="Euro" format="1">
  <advance width="1229"/>
  <unicode hex="20AC"/>
  <outline>
    <contour>
      <point x="235" y="710" type="line"/>
      <point x="233" y="736"/>
      <point x="232" y="764"/>
      <point x="232" y="792" type="curve" smooth="yes"/>
      <point x="232" y="812"/>
      <point x="233" y="832"/>
      <point x="234" y="851" type="curve"/>
      <point x="96" y="851" type="line"/>
      <point x="122" y="1001" type="line"/>
      <point x="255" y="1001" type="line"/>
      <point x="316" y="1323"/>
      <point x="496" y="1572"/>
      <point x="834" y="1572" type="curve" smooth="yes"/>
      <point x="991" y="1572"/>
      <point x="1101" y="1526"/>
      <point x="1187" y="1444" type="curve"/>
      <point x="1148" y="1239" type="line"/>
      <point x="1080" y="1336"/>
      <point x="998" y="1415"/>
      <point x="842" y="1415" type="curve" smooth="yes"/>
      <point x="584" y="1415"/>
      <point x="496" y="1213"/>
      <point x="450" y="1001" type="curve"/>
      <point x="1076" y="1001" type="line"/>
      <point x="1052" y="851" type="line"/>
      <point x="430" y="851" type="line"/>
      <point x="427" y="807" type="line"/>
      <point x="427" y="773"/>
      <point x="428" y="741"/>
      <point x="431" y="710" type="curve"/>
      <point x="1037" y="710" type="line"/>
      <point x="1016" y="560" type="line"/>
      <point x="446" y="560" type="line"/>
      <point x="479" y="320"/>
      <point x="560" y="136"/>
      <point x="833" y="136" type="curve" smooth="yes"/>
      <point x="980" y="136"/>
      <point x="1075" y="206"/>
      <point x="1163" y="275" type="curve"/>
      <point x="1162" y="81" type="line"/>
      <point x="1066" y="17"/>
      <point x="964" y="-22"/>
      <point x="815" y="-22" type="curve" smooth="yes"/>
      <point x="437" y="-22"/>
      <point x="295" y="228"/>
      <point x="249" y="560" type="curve"/>
      <point x="100" y="560" type="line"/>
      <point x="122" y="710" type="line"/>
    </contour>
  </outline>
</glyph>
<glyph name="Euro" format="1">
  <advance width="1229"/>
  <unicode hex="20AC"/>
  <outline>
    <contour>
      <point x="235" y="710" type="line"/>
      <point x="233" y="736"/>
      <point x="232" y="764"/>
      <point x="232" y="792" type="curve" smooth="yes"/>
      <point x="232" y="812"/>
      <point x="233" y="832"/>
      <point x="234" y="851" type="curve"/>
      <point x="96" y="851" type="line"/>
      <point x="122" y="1001" type="line"/>
      <point x="255" y="1001" type="line"/>
      <point x="316" y="1323"/>
      <point x="526" y="1572"/>
      <point x="864" y="1572" type="curve" smooth="yes"/>
      <point x="1021" y="1572"/>
      <point x="1151" y="1526"/>
      <point x="1237" y="1444" type="curve"/>
      <point x="1198" y="1239" type="line"/>
      <point x="1130" y="1336"/>
      <point x="1028" y="1415"/>
      <point x="872" y="1415" type="curve" smooth="yes"/>
      <point x="614" y="1415"/>
      <point x="496" y="1213"/>
      <point x="450" y="1001" type="curve"/>
      <point x="1106" y="1001" type="line"/>
      <point x="1082" y="851" type="line"/>
      <point x="430" y="851" type="line"/>
      <point x="427" y="807" type="line"/>
      <point x="427" y="773"/>
      <point x="428" y="741"/>
      <point x="431" y="710" type="curve"/>
      <point x="1067" y="710" type="line"/>
      <point x="1046" y="560" type="line"/>
      <point x="446" y="560" type="line"/>
      <point x="479" y="320"/>
      <point x="590" y="136"/>
      <point x="863" y="136" type="curve" smooth="yes"/>
      <point x="1010" y="136"/>
      <point x="1125" y="206"/>
      <point x="1213" y="275" type="curve"/>
      <point x="1212" y="81" type="line"/>
      <point x="1116" y="17"/>
      <point x="994" y="-22"/>
      <point x="845" y="-22" type="curve" smooth="yes"/>
      <point x="467" y="-22"/>
      <point x="295" y="228"/>
      <point x="249" y="560" type="curve"/>
      <point x="100" y="560" type="line"/>
      <point x="122" y="710" type="line"/>
    </contour>
  </outline>
</glyph>
<glyph name="partialdiff" format="1">
  <advance width="1229"/>
  <unicode hex="2202"/>
  <outline>
    <contour>
      <point x="1011" y="712" type="curve"/>
      <point x="963" y="847"/>
      <point x="871" y="943"/>
      <point x="693" y="943" type="curve" smooth="yes"/>
      <point x="440" y="943"/>
      <point x="309" y="702"/>
      <point x="309" y="453" type="curve" smooth="yes"/>
      <point x="309" y="263"/>
      <point x="397" y="120"/>
      <point x="589" y="120" type="curve" smooth="yes"/>
      <point x="871" y="120"/>
      <point x="982" y="463"/>
    </contour>
    <contour>
      <point x="667" y="1519" type="curve" smooth="yes"/>
      <point x="539" y="1519"/>
      <point x="433" y="1470"/>
      <point x="350" y="1416" type="curve"/>
      <point x="339" y="1566" type="line"/>
      <point x="428" y="1623"/>
      <point x="541" y="1664"/>
      <point x="678" y="1664" type="curve" smooth="yes"/>
      <point x="1064" y="1664"/>
      <point x="1215" y="1346"/>
      <point x="1215" y="962" type="curve" smooth="yes"/>
      <point x="1215" y="450"/>
      <point x="1026" y="-26"/>
      <point x="573" y="-26" type="curve" smooth="yes"/>
      <point x="282" y="-26"/>
      <point x="121" y="167"/>
      <point x="121" y="455" type="curve" smooth="yes"/>
      <point x="121" y="827"/>
      <point x="356" y="1088"/>
      <point x="677" y="1088" type="curve" smooth="yes"/>
      <point x="841" y="1088"/>
      <point x="952" y="1006"/>
      <point x="1027" y="907" type="curve"/>
      <point x="1028" y="989" type="line"/>
      <point x="1028" y="1258"/>
      <point x="936" y="1519"/>
    </contour>
  </outline>
</glyph>
<glyph name="uni2206" format="1">
  <advance width="1229"/>
  <unicode hex="2206"/>
  <outline>
    <contour>
      <point x="1035" y="176" type="line"/>
      <point x="893" y="555"/>
      <point x="722" y="918"/>
      <point x="607" y="1322" type="curve"/>
      <point x="480" y="933"/>
      <point x="327" y="556"/>
      <point x="189" y="176" type="curve"/>
    </contour>
    <contour>
      <point x="-62" y="0" type="line"/>
      <point x="-62" y="87" type="line"/>
      <point x="514" y="1552" type="line"/>
      <point x="715" y="1552" type="line"/>
      <point x="1291" y="87" type="line"/>
      <point x="1291" y="0" type="line"/>
    </contour>
  </outline>
</glyph>
<glyph name="product" format="1">
  <advance width="1229"/>
  <unicode hex="220F"/>
  <outline>
    <contour>
      <point x="1503" y="1388" type="line"/>
      <point x="1503" y="-358" type="line"/>
      <point x="1306" y="-358" type="line"/>
      <point x="1306" y="1388" type="line"/>
      <point x="506" y="1388" type="line"/>
      <point x="506" y="-358" type="line"/>
      <point x="312" y="-358" type="line"/>
      <point x="312" y="1388" type="line"/>
      <point x="174" y="1388" type="line"/>
      <point x="156" y="1545" type="line"/>
      <point x="1647" y="1545" type="line"/>
      <point x="1629" y="1388" type="line"/>
    </contour>
  </outline>
</glyph>
<glyph name="notequal" format="1">
  <advance width="1229"/>
  <unicode hex="2260"/>
  <outline>
    <contour>
      <point x="929" y="922" type="line"/>
      <point x="1271" y="922" type="line"/>
      <point x="1282" y="791" type="line"/>
      <point x="864" y="791" type="line"/>
      <point x="700" y="483" type="line"/>
      <point x="1273" y="483" type="line"/>
      <point x="1282" y="353" type="line"/>
      <point x="635" y="353" type="line"/>
      <point x="480" y="50" type="line"/>
      <point x="345" y="70" type="line"/>
      <point x="487" y="353" type="line"/>
      <point x="161" y="353" type="line"/>
      <point x="153" y="483" type="line"/>
      <point x="554" y="483" type="line"/>
      <point x="716" y="791" type="line"/>
      <point x="161" y="791" type="line"/>
      <point x="152" y="922" type="line"/>
      <point x="779" y="922" type="line"/>
      <point x="930" y="1219" type="line"/>
      <point x="1068" y="1200" type="line"/>
    </contour>
  </outline>
</glyph>
